Alegreya Sans-Black Italic.ufo
<glyph name="dollar" format="1">
  <advance width="469"/>
  <unicode hex="0024"/>
  <outline>
    <contour>
      <point x="171" y="81" type="line"/>
      <point x="150" y="-126" type="line"/>
      <point x="161" y="-140" type="line"/>
      <point x="257" y="-140" type="line"/>
      <point x="281" y="81" type="line"/>
    </contour>
    <contour>
      <point x="235" y="645" type="line"/>
      <point x="212" y="431" type="line"/>
      <point x="321" y="431" type="line"/>
      <point x="343" y="631" type="line"/>
      <point x="329" y="645" type="line"/>
    </contour>
    <contour>
      <point x="140" y="523"/>
      <point x="48" y="434"/>
      <point x="48" y="325" type="curve" smooth="yes"/>
      <point x="48" y="175"/>
      <point x="242" y="183"/>
      <point x="242" y="137" type="curve" smooth="yes"/>
      <point x="242" y="125"/>
      <point x="233" y="118"/>
      <point x="215" y="118" type="curve" smooth="yes"/>
      <point x="175" y="118"/>
      <point x="111" y="147"/>
      <point x="62" y="189" type="curve"/>
      <point x="44" y="176" type="line"/>
      <point x="0" y="16" type="line"/>
      <point x="65" y="-5"/>
      <point x="131" y="-12"/>
      <point x="178" y="-12" type="curve" smooth="yes"/>
      <point x="359" y="-12"/>
      <point x="428" y="92"/>
      <point x="428" y="184" type="curve" smooth="yes"/>
      <point x="428" y="332"/>
      <point x="235" y="324"/>
      <point x="235" y="371" type="curve" smooth="yes"/>
      <point x="235" y="381"/>
      <point x="242" y="387"/>
      <point x="257" y="387" type="curve" smooth="yes"/>
      <point x="283" y="387"/>
      <point x="336" y="369"/>
      <point x="382" y="336" type="curve"/>
      <point x="409" y="343" type="line"/>
      <point x="452" y="496" type="line"/>
      <point x="411" y="511"/>
      <point x="355" y="523"/>
      <point x="297" y="523" type="curve" smooth="yes"/>
    </contour>
    <contour>
      <point x="261" y="513" type="move" name="top"/>
    </contour>
    <contour>
      <point x="213" y="0" type="move" name="bottom"/>
    </contour>
  </outline>
</glyph>
<glyph name="percent" format="1">
  <advance width="896"/>
  <unicode hex="0025"/>
  <outline>
    <contour>
      <point x="162" y="516" type="move"/>
    </contour>
    <component base="zero.numr" xOffset="2" yOffset="55.990" yScale="0.92"/>
    <component base="fraction" xOffset="377.980"/>
    <component base="zero.dnom" xOffset="514" yScale="0.92"/>
  </outline>
</glyph>
<glyph name="two" format="1">
  <advance width="490"/>
  <unicode hex="0032"/>
  <outline>
    <contour>
      <point x="201" y="522"/>
      <point x="129" y="499"/>
      <point x="53" y="459" type="curve"/>
      <point x="67" y="308" type="line"/>
      <point x="88" y="308" type="line"/>
      <point x="133" y="338"/>
      <point x="185" y="358"/>
      <point x="221" y="358" type="curve" smooth="yes"/>
      <point x="243" y="358"/>
      <point x="253" y="350"/>
      <point x="253" y="336" type="curve" smooth="yes"/>
      <point x="253" y="312"/>
      <point x="216" y="278"/>
      <point x="157" y="232" type="curve" smooth="yes"/>
      <point x="17" y="121" type="line"/>
      <point x="2" y="4" type="line"/>
      <point x="10" y="-3" type="line"/>
      <point x="47" y="0" type="line"/>
      <point x="277" y="0" type="line"/>
      <point x="420" y="-8" type="line"/>
      <point x="460" y="145" type="line"/>
      <point x="451" y="157" type="line"/>
      <point x="353" y="147" type="line"/>
      <point x="275" y="147" type="line" smooth="yes"/>
      <point x="272" y="152" type="line"/>
      <point x="323" y="199" type="line" smooth="yes"/>
      <point x="419" y="287"/>
      <point x="454" y="337"/>
      <point x="454" y="391" type="curve" smooth="yes"/>
      <point x="454" y="477"/>
      <point x="374" y="522"/>
      <point x="274" y="522" type="curve" smooth="yes"/>
    </contour>
  </outline>
</glyph>
<glyph name="three" format="1">
  <advance width="453"/>
  <unicode hex="0033"/>
  <outline>
    <contour>
      <point x="177" y="524"/>
      <point x="110" y="504"/>
      <point x="44" y="469" type="curve"/>
      <point x="56" y="334" type="line"/>
      <point x="76" y="334" type="line"/>
      <point x="120" y="354"/>
      <point x="157" y="367"/>
      <point x="191" y="367" type="curve" smooth="yes"/>
      <point x="219" y="367"/>
      <point x="232" y="358"/>
      <point x="232" y="337" type="curve" smooth="yes"/>
      <point x="232" y="308"/>
      <point x="197" y="284"/>
      <point x="169" y="283" type="curve" smooth="yes"/>
      <point x="109" y="280" type="line"/>
      <point x="88" y="146" type="line"/>
      <point x="94" y="134" type="line"/>
      <point x="178" y="134" type="line"/>
      <point x="209" y="134"/>
      <point x="220" y="124"/>
      <point x="220" y="104" type="curve" smooth="yes"/>
      <point x="220" y="71"/>
      <point x="192" y="53"/>
      <point x="130" y="53" type="curve" smooth="yes"/>
      <point x="92" y="53"/>
      <point x="54" y="60"/>
      <point x="11" y="73" type="curve"/>
      <point x="-4" y="61" type="line"/>
      <point x="-11" y="-82" type="line"/>
      <point x="24" y="-89"/>
      <point x="77" y="-93"/>
      <point x="115" y="-93" type="curve" smooth="yes"/>
      <point x="292" y="-93"/>
      <point x="408" y="-9"/>
      <point x="408" y="111" type="curve" smooth="yes"/>
      <point x="408" y="169"/>
      <point x="381" y="200"/>
      <point x="329" y="229" type="curve"/>
      <point x="329" y="235" type="line"/>
      <point x="400" y="269"/>
      <point x="437" y="339"/>
      <point x="437" y="391" type="curve" smooth="yes"/>
      <point x="437" y="469"/>
      <point x="356" y="524"/>
      <point x="245" y="524" type="curve" smooth="yes"/>
    </contour>
  </outline>
</glyph>
<glyph name="six" format="1">
  <advance width="500"/>
  <unicode hex="0036"/>
  <outline>
    <contour>
      <point x="349" y="598" type="line"/>
      <point x="141" y="504"/>
      <point x="15" y="361"/>
      <point x="15" y="198" type="curve" smooth="yes"/>
      <point x="15" y="68"/>
      <point x="95" y="-12"/>
      <point x="232" y="-12" type="curve" smooth="yes"/>
      <point x="394" y="-12"/>
      <point x="474" y="99"/>
      <point x="474" y="202" type="curve" smooth="yes"/>
      <point x="474" y="290"/>
      <point x="416" y="376"/>
      <point x="310" y="376" type="curve" smooth="yes"/>
      <point x="290" y="376"/>
      <point x="273" y="373"/>
      <point x="252" y="365" type="curve"/>
      <point x="223" y="405" type="line"/>
      <point x="177" y="226" type="line"/>
      <point x="203" y="236"/>
      <point x="228" y="241"/>
      <point x="247" y="241" type="curve" smooth="yes"/>
      <point x="282" y="241"/>
      <point x="296" y="223"/>
      <point x="296" y="185" type="curve" smooth="yes"/>
      <point x="296" y="142"/>
      <point x="278" y="112"/>
      <point x="239" y="112" type="curve" smooth="yes"/>
      <point x="202" y="112"/>
      <point x="190" y="137"/>
      <point x="190" y="197" type="curve" smooth="yes"/>
      <point x="190" y="347"/>
      <point x="266" y="435"/>
      <point x="469" y="494" type="curve"/>
      <point x="471" y="512" type="line"/>
      <point x="358" y="598" type="line"/>
    </contour>
  </outline>
</glyph>
<glyph name="less" format="1">
  <advance width="492"/>
  <unicode hex="003C"/>
  <outline>
    <contour>
      <point x="64" y="350" type="line"/>
      <point x="50" y="333" type="line"/>
      <point x="31" y="178" type="line"/>
      <point x="381" y="43" type="line"/>
      <point x="399" y="56" type="line"/>
      <point x="438" y="164" type="line"/>
      <point x="173" y="255" type="line"/>
      <point x="174" y="264" type="line"/>
      <point x="462" y="357" type="line"/>
      <point x="471" y="369" type="line"/>
      <point x="445" y="480" type="line"/>
    </contour>
  </outline>
</glyph>
<glyph name="question" format="1">
  <advance width="352"/>
  <unicode hex="003F"/>
  <outline>
    <contour>
      <point x="119" y="668" type="line"/>
      <point x="73" y="569" type="line"/>
      <point x="85" y="552" type="line"/>
      <point x="203" y="544"/>
      <point x="239" y="527"/>
      <point x="239" y="494" type="curve" smooth="yes"/>
      <point x="239" y="467"/>
      <point x="219" y="449"/>
      <point x="184" y="435" type="curve" smooth="yes"/>
      <point x="96" y="399" type="line"/>
      <point x="88" y="388" type="line"/>
      <point x="84" y="252" type="line"/>
      <point x="95" y="240" type="line"/>
      <point x="233" y="260" type="line"/>
      <point x="235" y="331" type="line"/>
      <point x="238" y="337" type="line"/>
      <point x="300" y="367" type="line" smooth="yes"/>
      <point x="375" y="403"/>
      <point x="418" y="461"/>
      <point x="418" y="523" type="curve" smooth="yes"/>
      <point x="418" y="616"/>
      <point x="317" y="669"/>
      <point x="137" y="677" type="curve"/>
    </contour>
    <component base="period" xOffset="56.727"/>
  </outline>
</glyph>
<glyph name="B" format="1">
  <advance width="630"/>
  <unicode hex="0042"/>
  <outline>
    <contour>
      <point x="112" y="647" type="line"/>
      <point x="204" y="512" type="line"/>
      <point x="257" y="515"/>
      <point x="279" y="516"/>
      <point x="305" y="516" type="curve" smooth="yes"/>
      <point x="387" y="516"/>
      <point x="409" y="502"/>
      <point x="409" y="460" type="curve" smooth="yes"/>
      <point x="409" y="419"/>
      <point x="387" y="393"/>
      <point x="343" y="380" type="curve"/>
      <point x="149" y="389" type="line"/>
      <point x="133" y="252" type="line"/>
      <point x="348" y="256" type="line"/>
      <point x="381" y="244"/>
      <point x="399" y="231"/>
      <point x="399" y="200" type="curve" smooth="yes"/>
      <point x="399" y="153"/>
      <point x="360" y="124"/>
      <point x="299" y="124" type="curve"/>
      <point x="270" y="124"/>
      <point x="206" y="130"/>
      <point x="168" y="138" type="curve"/>
      <point x="33" y="0" type="line"/>
      <point x="102" y="-3"/>
      <point x="193" y="-7"/>
      <point x="251" y="-7" type="curve" smooth="yes"/>
      <point x="499" y="-7"/>
      <point x="600" y="64"/>
      <point x="600" y="196" type="curve" smooth="yes"/>
      <point x="600" y="265"/>
      <point x="572" y="302"/>
      <point x="496" y="333" type="curve"/>
      <point x="576" y="368"/>
      <point x="614" y="431"/>
      <point x="614" y="497" type="curve" smooth="yes"/>
      <point x="614" y="599"/>
      <point x="524" y="648"/>
      <point x="390" y="648" type="curve" smooth="yes"/>
    </contour>
    <contour>
      <point x="112" y="647" type="line"/>
      <point x="66" y="190" type="line"/>
      <point x="33" y="0" type="line"/>
      <point x="225" y="0" type="line"/>
      <point x="243" y="210" type="line"/>
      <point x="307" y="647" type="line"/>
    </contour>
  </outline>
</glyph>
<glyph name="E" format="1">
  <advance width="540"/>
  <unicode hex="0045"/>
  <outline>
    <contour>
      <point x="111" y="647" type="line"/>
      <point x="64" y="190" type="line"/>
      <point x="31" y="0" type="line"/>
      <point x="231" y="0" type="line"/>
      <point x="249" y="210" type="line"/>
      <point x="314" y="647" type="line"/>
    </contour>
    <contour>
      <point x="341" y="153" type="line"/>
      <point x="184" y="153" type="line"/>
      <point x="166" y="11" type="line"/>
      <point x="165" y="0" type="line"/>
      <point x="487" y="0" type="line"/>
      <point x="517" y="145" type="line"/>
      <point x="508" y="159" type="line"/>
    </contour>
    <contour>
      <point x="377" y="402" type="line"/>
      <point x="224" y="402" type="line"/>
      <point x="207" y="259" type="line"/>
      <point x="206" y="248" type="line"/>
      <point x="346" y="248" type="line"/>
      <point x="461" y="245" type="line"/>
      <point x="491" y="391" type="line"/>
      <point x="482" y="405" type="line"/>
    </contour>
    <contour>
      <point x="245" y="647" type="line"/>
      <point x="227" y="505" type="line"/>
      <point x="226" y="494" type="line"/>
      <point x="395" y="494" type="line"/>
      <point x="553" y="488" type="line"/>
      <point x="583" y="633" type="line"/>
      <point x="575" y="647" type="line"/>
    </contour>
    <contour>
      <point x="298" y="0" type="move" name="bottom"/>
    </contour>
    <contour>
      <point x="503" y="10" type="move" name="ogonek"/>
    </contour>
    <contour>
      <point x="337" y="647" type="move" name="top"/>
    </contour>
  </outline>
</glyph>
<glyph name="I" format="1">
  <advance width="327"/>
  <unicode hex="0049"/>
  <outline>
    <contour>
      <point x="111" y="647" type="line"/>
      <point x="65" y="190" type="line"/>
      <point x="31" y="0" type="line"/>
      <point x="231" y="0" type="line"/>
      <point x="249" y="210" type="line"/>
      <point x="314" y="647" type="line"/>
    </contour>
    <contour>
      <point x="265" y="10" type="move" name="ogonek"/>
    </contour>
    <contour>
      <point x="211" y="647" type="move" name="top"/>
    </contour>
  </outline>
</glyph>
<glyph name="R" format="1">
  <advance width="630"/>
  <unicode hex="0052"/>
  <outline>
    <contour>
      <point x="111" y="647" type="line"/>
      <point x="210" y="501" type="line"/>
      <point x="329" y="510" type="line"/>
      <point x="384" y="507"/>
      <point x="408" y="487"/>
      <point x="408" y="442" type="curve" smooth="yes"/>
      <point x="408" y="390"/>
      <point x="390" y="356"/>
      <point x="341" y="335" type="curve"/>
      <point x="145" y="346" type="line"/>
      <point x="126" y="193" type="line"/>
      <point x="345" y="193" type="line"/>
      <point x="513" y="227"/>
      <point x="621" y="339"/>
      <point x="621" y="475" type="curve" smooth="yes"/>
      <point x="621" y="586"/>
      <point x="539" y="648"/>
      <point x="407" y="648" type="curve"/>
    </contour>
    <contour>
      <point x="111" y="647" type="line"/>
      <point x="65" y="190" type="line"/>
      <point x="31" y="0" type="line"/>
      <point x="231" y="0" type="line"/>
      <point x="249" y="210" type="line"/>
      <point x="314" y="647" type="line"/>
    </contour>
    <contour>
      <point x="289" y="289" type="line"/>
      <point x="314" y="191"/>
      <point x="347" y="96"/>
      <point x="379" y="4" type="curve"/>
      <point x="396" y="-12" type="line"/>
      <point x="465" y="-8"/>
      <point x="533" y="5"/>
      <point x="601" y="25" type="curve"/>
      <point x="606" y="47" type="line"/>
      <point x="556" y="127"/>
      <point x="511" y="209"/>
      <point x="469" y="291" type="curve"/>
    </contour>
    <contour>
      <point x="287" y="0" type="move" name="bottom"/>
    </contour>
    <contour>
      <point x="366" y="647" type="move" name="top"/>
    </contour>
  </outline>
</glyph>
<glyph name="T" format="1">
  <advance width="518"/>
  <unicode hex="0054"/>
  <outline>
    <contour>
      <point x="211" y="627" type="line"/>
      <point x="165" y="190" type="line"/>
      <point x="131" y="0" type="line"/>
      <point x="330" y="0" type="line"/>
      <point x="348" y="210" type="line"/>
      <point x="407" y="627" type="line"/>
    </contour>
    <contour>
      <point x="69" y="647" type="line"/>
      <point x="40" y="502" type="line"/>
      <point x="50" y="488" type="line"/>
      <point x="184" y="494" type="line"/>
      <point x="401" y="494" type="line"/>
      <point x="531" y="488" type="line"/>
      <point x="560" y="633" type="line"/>
      <point x="551" y="647" type="line"/>
    </contour>
    <contour>
      <point x="230" y="0" type="move" name="bottom"/>
    </contour>
    <contour>
      <point x="277" y="324" type="move" name="center"/>
    </contour>
    <contour>
      <point x="309" y="647" type="move" name="top"/>
    </contour>
  </outline>
</glyph>
<glyph name="X" format="1">
  <advance width="634"/>
  <unicode hex="0058"/>
  <outline>
    <contour>
      <point x="475" y="647" type="line"/>
      <point x="436" y="577" type="line"/>
      <point x="356" y="463" type="line"/>
      <point x="312" y="566" type="line"/>
      <point x="287" y="647" type="line"/>
      <point x="51" y="647" type="line"/>
      <point x="204" y="321" type="line"/>
      <point x="-26" y="0" type="line"/>
      <point x="176" y="0" type="line"/>
      <point x="217" y="69" type="line"/>
      <point x="306" y="185" type="line"/>
      <point x="351" y="79" type="line"/>
      <point x="375" y="0" type="line"/>
      <point x="610" y="0" type="line"/>
      <point x="460" y="332" type="line"/>
      <point x="683" y="647" type="line"/>
    </contour>
  </outline>
</glyph>
<glyph name="Z" format="1">
  <advance width="569"/>
  <unicode hex="005A"/>
  <outline>
    <contour>
      <point x="514" y="647" type="line"/>
      <point x="240" y="647" type="line"/>
      <point x="90" y="650" type="line"/>
      <point x="57" y="498" type="line"/>
      <point x="63" y="490" type="line"/>
      <point x="184" y="500" type="line"/>
      <point x="342" y="500" type="line"/>
      <point x="17" y="136" type="line"/>
      <point x="-1" y="-6" type="line"/>
      <point x="101" y="0" type="line"/>
      <point x="331" y="0" type="line"/>
      <point x="507" y="-5" type="line"/>
      <point x="542" y="147" type="line"/>
      <point x="537" y="156" type="line"/>
      <point x="413" y="147" type="line"/>
      <point x="252" y="147" type="line"/>
      <point x="571" y="505" type="line"/>
      <point x="589" y="648" type="line"/>
    </contour>
    <contour>
      <point x="289" y="647" type="move" name="top"/>
    </contour>
  </outline>
</glyph>
<glyph name="bracketleft" format="1">
  <advance width="302"/>
  <unicode hex="005B"/>
  <outline>
    <contour>
      <point x="109" y="639" type="line"/>
      <point x="73" y="263" type="line"/>
      <point x="16" y="-113" type="line"/>
      <point x="259" y="-123" type="line"/>
      <point x="267" y="-114" type="line"/>
      <point x="278" y="-29" type="line"/>
      <point x="186" y="-14" type="line"/>
      <point x="253" y="540" type="line"/>
      <point x="349" y="554" type="line"/>
      <point x="360" y="640" type="line"/>
      <point x="354" y="649" type="line"/>
    </contour>
  </outline>
</glyph>
<glyph name="asciicircum" format="1">
  <advance width="460"/>
  <unicode hex="005E"/>
  <outline>
    <contour>
      <point x="192" y="502" type="line"/>
      <point x="174" y="491" type="line"/>
      <point x="2" y="151" type="line"/>
      <point x="107" y="111" type="line"/>
      <point x="121" y="118" type="line"/>
      <point x="245" y="371" type="line"/>
      <point x="254" y="371" type="line"/>
      <point x="314" y="119" type="line"/>
      <point x="425" y="145" type="line"/>
      <point x="439" y="161" type="line"/>
      <point x="347" y="502" type="line"/>
    </contour>
  </outline>
</glyph>
<glyph name="c" format="1">
  <advance width="379"/>
  <unicode hex="0063"/>
  <outline>
    <contour>
      <point x="96" y="481"/>
      <point x="10" y="337"/>
      <point x="10" y="181" type="curve" smooth="yes"/>
      <point x="10" y="73"/>
      <point x="52" y="8"/>
      <point x="171" y="-10" type="curve"/>
      <point x="193" y="-10" type="line"/>
      <point x="268" y="17"/>
      <point x="313" y="55"/>
      <point x="356" y="130" type="curve"/>
      <point x="300" y="200" type="line"/>
      <point x="277" y="201" type="line"/>
      <point x="250" y="154"/>
      <point x="235" y="141"/>
      <point x="216" y="141" type="curve" smooth="yes"/>
      <point x="191" y="141"/>
      <point x="181" y="163"/>
      <point x="181" y="216" type="curve" smooth="yes"/>
      <point x="181" y="303"/>
      <point x="196" y="346"/>
      <point x="242" y="346" type="curve" smooth="yes"/>
      <point x="266" y="346"/>
      <point x="276" y="333"/>
      <point x="296" y="307" type="curve"/>
      <point x="335" y="308" type="line"/>
      <point x="385" y="437" type="line"/>
      <point x="381" y="455" type="line"/>
      <point x="293" y="481" type="line"/>
    </contour>
    <contour>
      <point x="197" y="0" type="move" name="bottom"/>
    </contour>
    <contour>
      <point x="245" y="472" type="move" name="top"/>
    </contour>
  </outline>
</glyph>
<glyph name="d" format="1">
  <advance width="486"/>
  <unicode hex="0064"/>
  <outline>
    <contour>
      <point x="251" y="478" type="line"/>
      <point x="82" y="422"/>
      <point x="7" y="277"/>
      <point x="7" y="155" type="curve" smooth="yes"/>
      <point x="7" y="75"/>
      <point x="34" y="16"/>
      <point x="143" y="-11" type="curve"/>
      <point x="166" y="-11" type="line"/>
      <point x="197" y="25"/>
      <point x="222" y="66"/>
      <point x="244" y="108" type="curve"/>
      <point x="263" y="108" type="line"/>
      <point x="304" y="348" type="line"/>
      <point x="250" y="214"/>
      <point x="214" y="150"/>
      <point x="191" y="150" type="curve" smooth="yes"/>
      <point x="179" y="150"/>
      <point x="170" y="172"/>
      <point x="170" y="227" type="curve" smooth="yes"/>
      <point x="170" y="307"/>
      <point x="187" y="349"/>
      <point x="223" y="349" type="curve"/>
      <point x="343" y="318" type="line"/>
      <point x="438" y="447" type="line"/>
      <point x="258" y="478" type="line"/>
    </contour>
    <contour>
      <point x="324" y="693" type="line"/>
      <point x="320" y="580" type="line"/>
      <point x="242" y="-4" type="line"/>
      <point x="419" y="7" type="line"/>
      <point x="423" y="116" type="line"/>
      <point x="501" y="704" type="line"/>
    </contour>
    <contour>
      <point x="357" y="0" type="move" name="bottom"/>
    </contour>
    <contour>
      <point x="479" y="236" type="move" name="center"/>
    </contour>
    <contour>
      <point x="357" y="472" type="move" name="top"/>
    </contour>
    <contour>
      <point x="478" y="472" type="move" name="topright"/>
    </contour>
  </outline>
</glyph>
<glyph name="e" format="1">
  <advance width="436"/>
  <unicode hex="0065"/>
  <outline>
    <contour>
      <point x="149" y="170" type="line"/>
      <point x="351" y="216"/>
      <point x="424" y="270"/>
      <point x="424" y="354" type="curve" smooth="yes"/>
      <point x="424" y="427"/>
      <point x="375" y="468"/>
      <point x="302" y="482" type="curve"/>
      <point x="287" y="484" type="line"/>
      <point x="116" y="474"/>
      <point x="12" y="357"/>
      <point x="12" y="183" type="curve"/>
      <point x="12" y="72"/>
      <point x="65" y="4"/>
      <point x="201" y="-11" type="curve"/>
      <point x="217" y="-11" type="line"/>
      <point x="284" y="8"/>
      <point x="351" y="48"/>
      <point x="404" y="112" type="curve"/>
      <point x="347" y="184" type="line"/>
      <point x="325" y="187" type="line"/>
      <point x="296" y="144"/>
      <point x="267" y="124"/>
      <point x="233" y="124" type="curve" smooth="yes"/>
      <point x="192" y="124"/>
      <point x="177" y="150"/>
      <point x="177" y="233" type="curve" smooth="yes"/>
      <point x="177" y="330"/>
      <point x="197" y="371"/>
      <point x="241" y="371" type="curve" smooth="yes"/>
      <point x="260" y="371"/>
      <point x="268" y="363"/>
      <point x="268" y="343" type="curve" smooth="yes"/>
      <point x="268" y="301"/>
      <point x="233" y="285"/>
      <point x="149" y="270" type="curve"/>
    </contour>
    <contour>
      <point x="214" y="0" type="move" name="bottom"/>
    </contour>
    <contour>
      <point x="373" y="10" type="move" name="ogonek"/>
    </contour>
    <contour>
      <point x="242" y="472" type="move" name="top"/>
    </contour>
  </outline>
</glyph>
<glyph name="k" format="1">
  <advance width="540"/>
  <unicode hex="006B"/>
  <outline>
    <contour>
      <point x="368" y="473" type="line"/>
      <point x="325" y="435"/>
      <point x="282" y="393"/>
      <point x="243" y="345" type="curve"/>
      <point x="223" y="345" type="line"/>
      <point x="188" y="155" type="line"/>
      <point x="244" y="255"/>
      <point x="293" y="295"/>
      <point x="319" y="295" type="curve" smooth="yes"/>
      <point x="328" y="295"/>
      <point x="335" y="288"/>
      <point x="335" y="278" type="curve" smooth="yes"/>
      <point x="335" y="255"/>
      <point x="302" y="218"/>
      <point x="259" y="193" type="curve"/>
      <point x="253" y="170" type="line"/>
      <point x="270" y="112"/>
      <point x="292" y="54"/>
      <point x="314" y="-4" type="curve"/>
      <point x="331" y="-12" type="line"/>
      <point x="480" y="7" type="line"/>
      <point x="489" y="20" type="line"/>
      <point x="461" y="72"/>
      <point x="433" y="126"/>
      <point x="409" y="180" type="curve"/>
      <point x="468" y="224"/>
      <point x="515" y="281"/>
      <point x="515" y="349" type="curve" smooth="yes"/>
      <point x="515" y="422"/>
      <point x="460" y="460"/>
      <point x="381" y="474" type="curve"/>
    </contour>
    <contour>
      <point x="96" y="693" type="line"/>
      <point x="93" y="580" type="line"/>
      <point x="14" y="-4" type="line"/>
      <point x="192" y="7" type="line"/>
      <point x="195" y="116" type="line"/>
      <point x="274" y="704" type="line"/>
    </contour>
    <contour>
      <point x="264" y="0" type="move" name="bottom"/>
    </contour>
    <contour>
      <point x="132" y="472" type="move" name="top"/>
    </contour>
    <contour>
      <point x="252" y="472" type="move" name="topright"/>
    </contour>
  </outline>
</glyph>
<glyph name="l" format="1">
  <advance width="258"/>
  <unicode hex="006C"/>
  <outline>
    <contour>
      <point x="96" y="693" type="line"/>
      <point x="93" y="580" type="line"/>
      <point x="14" y="-4" type="line"/>
      <point x="192" y="7" type="line"/>
      <point x="195" y="116" type="line"/>
      <point x="274" y="704" type="line"/>
    </contour>
    <contour>
      <point x="102" y="0" type="move" name="bottom"/>
    </contour>
    <contour>
      <point x="180" y="700" type="move" name="top"/>
    </contour>
    <contour>
      <point x="267" y="472" type="move" name="topright"/>
    </contour>
  </outline>
</glyph>
<glyph name="o" format="1">
  <advance width="468"/>
  <unicode hex="006F"/>
  <outline>
    <contour>
      <point x="119" y="474"/>
      <point x="12" y="361"/>
      <point x="12" y="183" type="curve" smooth="yes"/>
      <point x="12" y="72"/>
      <point x="70" y="11"/>
      <point x="162" y="-10" type="curve"/>
      <point x="178" y="-12" type="line"/>
      <point x="349" y="-3"/>
      <point x="456" y="109"/>
      <point x="456" y="301" type="curve" smooth="yes"/>
      <point x="456" y="404"/>
      <point x="395" y="462"/>
      <point x="305" y="482" type="curve"/>
      <point x="289" y="484" type="line"/>
    </contour>
    <contour>
      <point x="278" y="348"/>
      <point x="284" y="334"/>
      <point x="284" y="290" type="curve" smooth="yes"/>
      <point x="284" y="168"/>
      <point x="276" y="120"/>
      <point x="213" y="120" type="curve" smooth="yes"/>
      <point x="189" y="120"/>
      <point x="182" y="134"/>
      <point x="182" y="179" type="curve" smooth="yes"/>
      <point x="182" y="300"/>
      <point x="190" y="348"/>
      <point x="255" y="348" type="curve" smooth="yes"/>
    </contour>
    <contour>
      <point x="267" y="472" type="move" name="top"/>
    </contour>
  </outline>
</glyph>
<glyph name="q" format="1">
  <advance width="490"/>
  <unicode hex="0071"/>
  <outline>
    <contour>
      <point x="251" y="478" type="line"/>
      <point x="82" y="422"/>
      <point x="7" y="277"/>
      <point x="7" y="155" type="curve" smooth="yes"/>
      <point x="7" y="75"/>
      <point x="34" y="16"/>
      <point x="143" y="-11" type="curve"/>
      <point x="166" y="-11" type="line"/>
      <point x="197" y="25"/>
      <point x="222" y="66"/>
      <point x="244" y="108" type="curve"/>
      <point x="263" y="108" type="line"/>
      <point x="304" y="348" type="line"/>
      <point x="250" y="214"/>
      <point x="214" y="150"/>
      <point x="191" y="150" type="curve" smooth="yes"/>
      <point x="179" y="150"/>
      <point x="170" y="174"/>
      <point x="170" y="227" type="curve" smooth="yes"/>
      <point x="170" y="307"/>
      <point x="187" y="349"/>
      <point x="224" y="349" type="curve"/>
      <point x="344" y="318" type="line"/>
      <point x="438" y="447" type="line"/>
      <point x="258" y="478" type="line"/>
    </contour>
    <contour>
      <point x="300" y="450" type="line"/>
      <point x="293" y="349" type="line"/>
      <point x="221" y="-196" type="line"/>
      <point x="398" y="-185" type="line"/>
      <point x="402" y="-76" type="line"/>
      <point x="474" y="476" type="line"/>
      <point x="463" y="484" type="line"/>
    </contour>
  </outline>
</glyph>
<glyph name="r" format="1">
  <advance width="385"/>
  <unicode hex="0072"/>
  <outline>
    <contour>
      <point x="316" y="445"/>
      <point x="280" y="407"/>
      <point x="244" y="352" type="curve"/>
      <point x="208" y="352" type="line"/>
      <point x="184" y="180" type="line"/>
      <point x="235" y="234"/>
      <point x="266" y="250"/>
      <point x="318" y="254" type="curve"/>
      <point x="353" y="247" type="line"/>
      <point x="369" y="254" type="line"/>
      <point x="397" y="470" type="line"/>
      <point x="368" y="475" type="line"/>
    </contour>
    <contour>
      <point x="66" y="465" type="line"/>
      <point x="62" y="352" type="line"/>
      <point x="15" y="-4" type="line"/>
      <point x="192" y="7" type="line"/>
      <point x="196" y="116" type="line"/>
      <point x="243" y="476" type="line"/>
    </contour>
    <contour>
      <point x="130" y="0" type="move" name="bottom"/>
    </contour>
    <contour>
      <point x="238" y="472" type="move" name="top"/>
    </contour>
  </outline>
</glyph>
<glyph name="s" format="1">
  <advance width="385"/>
  <unicode hex="0073"/>
  <outline>
    <contour>
      <point x="145" y="480"/>
      <point x="37" y="415"/>
      <point x="33" y="300" type="curve"/>
      <point x="31" y="184"/>
      <point x="199" y="160"/>
      <point x="199" y="119" type="curve" smooth="yes"/>
      <point x="199" y="111"/>
      <point x="192" y="100"/>
      <point x="172" y="100" type="curve" smooth="yes"/>
      <point x="138" y="100"/>
      <point x="87" y="124"/>
      <point x="48" y="169" type="curve"/>
      <point x="30" y="160" type="line"/>
      <point x="-12" y="15" type="line"/>
      <point x="34" y="2"/>
      <point x="80" y="-6"/>
      <point x="128" y="-11" type="curve"/>
      <point x="255" y="-11"/>
      <point x="355" y="61"/>
      <point x="355" y="163" type="curve" smooth="yes"/>
      <point x="355" y="291"/>
      <point x="193" y="299"/>
      <point x="193" y="346" type="curve" smooth="yes"/>
      <point x="193" y="357"/>
      <point x="201" y="365"/>
      <point x="217" y="365" type="curve" smooth="yes"/>
      <point x="243" y="365"/>
      <point x="286" y="346"/>
      <point x="323" y="309" type="curve"/>
      <point x="346" y="318" type="line"/>
      <point x="387" y="456" type="line"/>
      <point x="347" y="468"/>
      <point x="307" y="476"/>
      <point x="266" y="480" type="curve"/>
    </contour>
    <contour>
      <point x="173" y="0" type="move" name="bottom"/>
    </contour>
    <contour>
      <point x="234" y="472" type="move" name="top"/>
    </contour>
  </outline>
</glyph>
<glyph name="t" format="1">
  <advance width="366"/>
  <unicode hex="0074"/>
  <outline>
    <contour>
      <point x="114" y="560" type="line"/>
      <point x="93" y="355" type="line"/>
      <point x="61" y="137" type="line"/>
      <point x="58" y="107" type="line"/>
      <point x="61" y="28"/>
      <point x="108" y="1"/>
      <point x="212" y="-10" type="curve"/>
      <point x="230" y="-8" type="line"/>
      <point x="276" y="26"/>
      <point x="312" y="68"/>
      <point x="343" y="116" type="curve"/>
      <point x="295" y="177" type="line"/>
      <point x="272" y="178" type="line"/>
      <point x="259" y="156"/>
      <point x="249" y="148"/>
      <point x="240" y="148" type="curve" smooth="yes"/>
      <point x="232" y="148"/>
      <point x="230" y="153"/>
      <point x="230" y="157" type="curve"/>
      <point x="231" y="166" type="line"/>
      <point x="295" y="588" type="line"/>
      <point x="283" y="598" type="line"/>
    </contour>
    <contour>
      <point x="34" y="463" type="line"/>
      <point x="23" y="373" type="line"/>
      <point x="32" y="362" type="line"/>
      <point x="375" y="362" type="line"/>
      <point x="386" y="449" type="line"/>
      <point x="374" y="463" type="line"/>
    </contour>
    <contour>
      <point x="195" y="0" type="move" name="bottom"/>
    </contour>
    <contour>
      <point x="182" y="236" type="move" name="center"/>
    </contour>
  </outline>
</glyph>
<glyph name="v" format="1">
  <advance width="471"/>
  <unicode hex="0076"/>
  <outline>
    <contour>
      <point x="300" y="459" type="line"/>
      <point x="292" y="442" type="line"/>
      <point x="301" y="424"/>
      <point x="305" y="405"/>
      <point x="305" y="386" type="curve" smooth="yes"/>
      <point x="305" y="358"/>
      <point x="296" y="328"/>
      <point x="280" y="291" type="curve" smooth="yes"/>
      <point x="232" y="182" type="line"/>
      <point x="218" y="182" type="line"/>
      <point x="208" y="385" type="line"/>
      <point x="208" y="476" type="line"/>
      <point x="31" y="466" type="line"/>
      <point x="91" y="0" type="line"/>
      <point x="295" y="0" type="line"/>
      <point x="429" y="247" type="line" smooth="yes"/>
      <point x="460" y="304"/>
      <point x="476" y="353"/>
      <point x="476" y="401" type="curve" smooth="yes"/>
      <point x="476" y="427"/>
      <point x="471" y="453"/>
      <point x="462" y="479" type="curve"/>
    </contour>
  </outline>
</glyph>
<glyph name="w" format="1">
  <advance width="743"/>
  <unicode hex="0077"/>
  <outline>
    <contour>
      <point x="734" y="304"/>
      <point x="751" y="353"/>
      <point x="751" y="401" type="curve" smooth="yes"/>
      <point x="751" y="427"/>
      <point x="746" y="453"/>
      <point x="737" y="479" type="curve"/>
      <point x="575" y="459" type="line"/>
      <point x="567" y="442" type="line"/>
      <point x="576" y="424"/>
      <point x="580" y="405"/>
      <point x="580" y="386" type="curve" smooth="yes"/>
      <point x="580" y="358"/>
      <point x="570" y="328"/>
      <point x="555" y="291" type="curve" smooth="yes"/>
      <point x="518" y="199" type="line"/>
      <point x="504" y="199" type="line"/>
      <point x="500" y="389" type="line"/>
      <point x="499" y="472" type="line"/>
      <point x="311" y="472" type="line"/>
      <point x="284" y="377" type="line"/>
      <point x="223" y="198" type="line"/>
      <point x="208" y="198" type="line"/>
      <point x="206" y="389" type="line"/>
      <point x="206" y="476" type="line"/>
      <point x="31" y="466" type="line"/>
      <point x="85" y="0" type="line"/>
      <point x="279" y="0" type="line"/>
      <point x="357" y="234" type="line"/>
      <point x="372" y="234" type="line"/>
      <point x="383" y="0" type="line"/>
      <point x="580" y="0" type="line"/>
      <point x="705" y="247" type="line" smooth="yes"/>
    </contour>
    <contour>
      <point x="401" y="472" type="move" name="top"/>
    </contour>
  </outline>
</glyph>
<glyph name="x" format="1">
  <advance width="502"/>
  <unicode hex="0078"/>
  <outline>
    <contour>
      <point x="517" y="472" type="line"/>
      <point x="331" y="472" type="line"/>
      <point x="309" y="422" type="line"/>
      <point x="271" y="356" type="line"/>
      <point x="247" y="426" type="line"/>
      <point x="234" y="482" type="line"/>
      <point x="41" y="467" type="line"/>
      <point x="130" y="242" type="line"/>
      <point x="-30" y="0" type="line"/>
      <point x="163" y="0" type="line"/>
      <point x="190" y="65" type="line"/>
      <point x="228" y="129" type="line"/>
      <point x="249" y="60" type="line"/>
      <point x="261" y="-9" type="line"/>
      <point x="461" y="4" type="line"/>
      <point x="357" y="233" type="line"/>
    </contour>
  </outline>
</glyph>
<glyph name="y" format="1">
  <advance width="483"/>
  <unicode hex="0079"/>
  <outline>
    <contour>
      <point x="312" y="459" type="line"/>
      <point x="304" y="442" type="line"/>
      <point x="313" y="424"/>
      <point x="318" y="404"/>
      <point x="318" y="382" type="curve" smooth="yes"/>
      <point x="318" y="348"/>
      <point x="308" y="311"/>
      <point x="292" y="272" type="curve" smooth="yes"/>
      <point x="204" y="51" type="line" smooth="yes"/>
      <point x="183" y="-3"/>
      <point x="116" y="-33"/>
      <point x="50" y="-33" type="curve" smooth="yes"/>
      <point x="21" y="-33"/>
      <point x="-9" y="-28"/>
      <point x="-40" y="-20" type="curve"/>
      <point x="-55" y="-36" type="line"/>
      <point x="-46" y="-180" type="line"/>
      <point x="-12" y="-192"/>
      <point x="24" y="-198"/>
      <point x="59" y="-198" type="curve" smooth="yes"/>
      <point x="171" y="-198"/>
      <point x="252" y="-134"/>
      <point x="353" y="66" type="curve" smooth="yes"/>
      <point x="445" y="247" type="line" smooth="yes"/>
      <point x="474" y="305"/>
      <point x="489" y="353"/>
      <point x="489" y="401" type="curve" smooth="yes"/>
      <point x="489" y="427"/>
      <point x="484" y="453"/>
      <point x="475" y="479" type="curve"/>
    </contour>
    <contour>
      <point x="31" y="466" type="line"/>
      <point x="158" y="-102" type="line"/>
      <point x="352" y="185" type="line"/>
      <point x="243" y="185" type="line"/>
      <point x="216" y="385" type="line"/>
      <point x="209" y="476" type="line"/>
    </contour>
    <contour>
      <point x="270" y="472" type="move" name="top"/>
    </contour>
  </outline>
</glyph>
<glyph name="z" format="1">
  <advance width="446"/>
  <unicode hex="007A"/>
  <outline>
    <contour>
      <point x="357" y="470" type="line"/>
      <point x="189" y="476" type="line"/>
      <point x="85" y="484" type="line"/>
      <point x="68" y="473" type="line"/>
      <point x="38" y="320" type="line"/>
      <point x="52" y="308" type="line"/>
      <point x="128" y="323" type="line"/>
      <point x="198" y="326" type="line"/>
      <point x="-27" y="41" type="line"/>
      <point x="25" y="-8" type="line"/>
      <point x="47" y="-8" type="line"/>
      <point x="73" y="15"/>
      <point x="86" y="23"/>
      <point x="109" y="23" type="curve" smooth="yes"/>
      <point x="155" y="23"/>
      <point x="207" y="-10"/>
      <point x="275" y="-10" type="curve" smooth="yes"/>
      <point x="359" y="-10"/>
      <point x="419" y="38"/>
      <point x="421" y="201" type="curve"/>
      <point x="352" y="219" type="line"/>
      <point x="331" y="213" type="line"/>
      <point x="322" y="158"/>
      <point x="309" y="153"/>
      <point x="273" y="153" type="curve" smooth="yes"/>
      <point x="271" y="153"/>
      <point x="236" y="153"/>
      <point x="236" y="153" type="curve"/>
      <point x="211" y="146" type="line"/>
      <point x="448" y="442" type="line"/>
      <point x="398" y="493" type="line"/>
    </contour>
    <contour>
      <point x="253" y="472" type="move" name="top"/>
    </contour>
  </outline>
</glyph>
<glyph name="yen" format="1">
  <advance width="585"/>
  <unicode hex="00A5"/>
  <outline>
    <contour>
      <point x="34" y="185" type="line"/>
      <point x="20" y="108" type="line"/>
      <point x="25" y="99" type="line"/>
      <point x="528" y="99" type="line"/>
      <point x="542" y="178" type="line"/>
      <point x="535" y="185" type="line"/>
    </contour>
    <contour>
      <point x="52" y="326" type="line"/>
      <point x="37" y="249" type="line"/>
      <point x="42" y="240" type="line"/>
      <point x="225" y="240" type="line"/>
      <point x="234" y="326" type="line"/>
    </contour>
    <contour>
      <point x="366" y="326" type="line"/>
      <point x="353" y="240" type="line"/>
      <point x="545" y="240" type="line"/>
      <point x="561" y="319" type="line"/>
      <point x="554" y="326" type="line"/>
    </contour>
    <contour>
      <point x="427" y="511" type="line"/>
      <point x="401" y="460" type="line"/>
      <point x="304" y="321" type="line"/>
      <point x="294" y="321" type="line"/>
      <point x="244" y="466" type="line"/>
      <point x="235" y="511" type="line"/>
      <point x="57" y="511" type="line"/>
      <point x="234" y="55" type="line"/>
      <point x="287" y="55" type="line"/>
      <point x="600" y="511" type="line"/>
    </contour>
    <contour>
      <point x="202" y="224" type="line"/>
      <point x="195" y="133" type="line"/>
      <point x="170" y="0" type="line"/>
      <point x="339" y="0" type="line"/>
      <point x="348" y="133" type="line"/>
      <point x="365" y="224" type="line"/>
    </contour>
    <contour>
      <point x="328" y="513" type="move" name="top"/>
    </contour>
  </outline>
</glyph>
<glyph name="dieresis" format="1">
  <advance width="390"/>
  <unicode hex="00A8"/>
  <outline>
    <contour>
      <point x="96" y="715"/>
      <point x="62" y="682"/>
      <point x="62" y="626" type="curve" smooth="yes"/>
      <point x="62" y="573"/>
      <point x="91" y="543"/>
      <point x="144" y="543" type="curve" smooth="yes"/>
      <point x="197" y="543"/>
      <point x="231" y="578"/>
      <point x="231" y="634" type="curve" smooth="yes"/>
      <point x="231" y="686"/>
      <point x="201" y="715"/>
      <point x="151" y="715" type="curve" smooth="yes"/>
    </contour>
    <contour>
      <point x="289" y="715"/>
      <point x="255" y="682"/>
      <point x="255" y="626" type="curve" smooth="yes"/>
      <point x="255" y="573"/>
      <point x="284" y="543"/>
      <point x="337" y="543" type="curve" smooth="yes"/>
      <point x="390" y="543"/>
      <point x="424" y="578"/>
      <point x="424" y="634" type="curve" smooth="yes"/>
      <point x="424" y="685"/>
      <point x="394" y="715"/>
      <point x="344" y="715" type="curve" smooth="yes"/>
    </contour>
    <contour>
      <point x="224" y="472" type="move" name="_top"/>
    </contour>
  </outline>
</glyph>
<glyph name="cedilla" format="1">
  <advance width="390"/>
  <unicode hex="00B8"/>
  <outline>
    <contour>
      <point x="101" y="33" type="line"/>
      <point x="79" y="-79" type="line"/>
      <point x="129" y="-106" type="line" smooth="yes"/>
      <point x="137" y="-110"/>
      <point x="141" y="-114"/>
      <point x="141" y="-121" type="curve" smooth="yes"/>
      <point x="141" y="-130"/>
      <point x="136" y="-135"/>
      <point x="125" y="-135" type="curve" smooth="yes"/>
      <point x="111" y="-135"/>
      <point x="86" y="-125"/>
      <point x="65" y="-107" type="curve"/>
      <point x="57" y="-110" type="line"/>
      <point x="46" y="-185" type="line"/>
      <point x="73" y="-200"/>
      <point x="103" y="-209"/>
      <point x="138" y="-209" type="curve" smooth="yes"/>
      <point x="207" y="-209"/>
      <point x="248" y="-173"/>
      <point x="248" y="-125" type="curve" smooth="yes"/>
      <point x="248" y="-101"/>
      <point x="238" y="-80"/>
      <point x="204" y="-62" type="curve" smooth="yes"/>
      <point x="170" y="-43" type="line"/>
      <point x="184" y="33" type="line"/>
    </contour>
    <contour>
      <point x="157" y="-1" type="move" name="_bottom"/>
    </contour>
  </outline>
</glyph>
<glyph name="Oslash" format="1">
  <advance width="658"/>
  <unicode hex="00D8"/>
  <outline>
    <contour>
      <point x="157" y="132" type="line"/>
      <point x="34" y="-71" type="line"/>
      <point x="40" y="-88" type="line"/>
      <point x="137" y="-135" type="line"/>
      <point x="258" y="65" type="line"/>
    </contour>
    <contour>
      <point x="524" y="507" type="line"/>
      <point x="633" y="687" type="line"/>
      <point x="624" y="706" type="line"/>
      <point x="530" y="752" type="line"/>
      <point x="423" y="574" type="line"/>
    </contour>
    <component base="O"/>
    <contour>
      <point x="365" y="650" type="move" name="top"/>
    </contour>
  </outline>
</glyph>
<glyph name="germandbls" format="1">
  <advance width="636"/>
  <unicode hex="00DF"/>
  <outline>
    <contour>
      <point x="226" y="704"/>
      <point x="125" y="614"/>
      <point x="106" y="467" type="curve"/>
      <point x="77" y="190" type="line"/>
      <point x="38" y="-108" type="line"/>
      <point x="215" y="-97" type="line"/>
      <point x="219" y="12" type="line"/>
      <point x="244" y="210" type="line"/>
      <point x="285" y="497" type="line"/>
      <point x="293" y="555"/>
      <point x="326" y="570"/>
      <point x="366" y="570" type="curve" smooth="yes"/>
      <point x="405" y="570"/>
      <point x="423" y="555"/>
      <point x="423" y="524" type="curve" smooth="yes"/>
      <point x="423" y="454"/>
      <point x="321" y="428"/>
      <point x="321" y="318" type="curve" smooth="yes"/>
      <point x="321" y="182"/>
      <point x="478" y="162"/>
      <point x="477" y="119" type="curve" smooth="yes"/>
      <point x="477" y="110"/>
      <point x="469" y="98"/>
      <point x="448" y="98" type="curve" smooth="yes"/>
      <point x="415" y="98"/>
      <point x="366" y="123"/>
      <point x="326" y="168" type="curve"/>
      <point x="308" y="159" type="line"/>
      <point x="269" y="15" type="line"/>
      <point x="315" y="2"/>
      <point x="358" y="-6"/>
      <point x="406" y="-11" type="curve"/>
      <point x="533" y="-11"/>
      <point x="632" y="59"/>
      <point x="632" y="161" type="curve" smooth="yes"/>
      <point x="632" y="289"/>
      <point x="478" y="292"/>
      <point x="478" y="359" type="curve"/>
      <point x="478" y="421"/>
      <point x="589" y="458"/>
      <point x="589" y="560" type="curve" smooth="yes"/>
      <point x="589" y="640"/>
      <point x="522" y="704"/>
      <point x="386" y="704" type="curve" smooth="yes"/>
    </contour>
    <contour>
      <point x="37" y="463" type="line"/>
      <point x="25" y="373" type="line"/>
      <point x="33" y="362" type="line"/>
      <point x="174" y="362" type="line"/>
      <point x="187" y="449" type="line"/>
      <point x="175" y="463" type="line"/>
    </contour>
  </outline>
</glyph>
<glyph name="eth" format="1">
  <advance width="492"/>
  <unicode hex="00F0"/>
  <outline>
    <contour>
      <point x="197" y="712" type="line"/>
      <point x="70" y="626" type="line"/>
      <point x="67" y="606" type="line"/>
      <point x="247" y="518"/>
      <point x="304" y="447"/>
      <point x="304" y="291" type="curve"/>
      <point x="304" y="167"/>
      <point x="293" y="115"/>
      <point x="228" y="115" type="curve" smooth="yes"/>
      <point x="204" y="115"/>
      <point x="195" y="130"/>
      <point x="195" y="176" type="curve" smooth="yes"/>
      <point x="195" y="301"/>
      <point x="207" y="350"/>
      <point x="272" y="350" type="curve" smooth="yes"/>
      <point x="288" y="350"/>
      <point x="298" y="342"/>
      <point x="305" y="324" type="curve"/>
      <point x="426" y="421" type="line"/>
      <point x="396" y="445"/>
      <point x="355" y="461"/>
      <point x="306" y="469" type="curve"/>
      <point x="290" y="471" type="line"/>
      <point x="132" y="461"/>
      <point x="32" y="353"/>
      <point x="32" y="180" type="curve" smooth="yes"/>
      <point x="32" y="71"/>
      <point x="89" y="11"/>
      <point x="179" y="-10" type="curve"/>
      <point x="195" y="-12" type="line"/>
      <point x="364" y="-3"/>
      <point x="469" y="110"/>
      <point x="469" y="301" type="curve"/>
      <point x="474" y="459"/>
      <point x="389" y="606"/>
      <point x="206" y="712" type="curve"/>
    </contour>
    <contour>
      <point x="48" y="513" type="line"/>
      <point x="76" y="447" type="line"/>
      <point x="89" y="443" type="line"/>
      <point x="444" y="648" type="line" smooth="yes"/>
      <point x="415" y="716" type="line"/>
      <point x="401" y="720" type="line"/>
    </contour>
  </outline>
</glyph>
<glyph name="oslash" format="1">
  <advance width="468"/>
  <unicode hex="00F8"/>
  <outline>
    <contour>
      <point x="109" y="136" type="line"/>
      <point x="-13" y="-63" type="line"/>
      <point x="-9" y="-79" type="line"/>
      <point x="81" y="-132" type="line"/>
      <point x="202" y="67" type="line"/>
    </contour>
    <contour>
      <point x="380" y="361" type="line"/>
      <point x="480" y="525" type="line"/>
      <point x="471" y="542" type="line"/>
      <point x="386" y="594" type="line"/>
      <point x="275" y="411" type="line"/>
    </contour>
    <component base="o"/>
    <contour>
      <point x="238" y="472" type="move" name="top"/>
    </contour>
  </outline>
</glyph>
<glyph name="thorn" format="1">
  <advance width="491"/>
  <unicode hex="00FE"/>
  <outline>
    <contour>
      <point x="324" y="478" type="line"/>
      <point x="293" y="441"/>
      <point x="267" y="399"/>
      <point x="245" y="357" type="curve"/>
      <point x="216" y="357" type="line"/>
      <point x="185" y="123" type="line"/>
      <point x="240" y="253"/>
      <point x="275" y="321"/>
      <point x="299" y="321" type="curve" smooth="yes"/>
      <point x="311" y="321"/>
      <point x="320" y="298"/>
      <point x="320" y="238" type="curve" smooth="yes"/>
      <point x="320" y="165"/>
      <point x="305" y="118"/>
      <point x="275" y="118" type="curve"/>
      <point x="146" y="152" type="line"/>
      <point x="51" y="23" type="line"/>
      <point x="240" y="-11" type="line"/>
      <point x="247" y="-11" type="line"/>
      <point x="405" y="42"/>
      <point x="482" y="184"/>
      <point x="482" y="311" type="curve" smooth="yes"/>
      <point x="482" y="397"/>
      <point x="450" y="452"/>
      <point x="347" y="478" type="curve"/>
    </contour>
    <contour>
      <point x="98" y="693" type="line"/>
      <point x="94" y="580" type="line"/>
      <point x="-9" y="-196" type="line"/>
      <point x="168" y="-185" type="line"/>
      <point x="172" y="-76" type="line"/>
      <point x="275" y="704" type="line"/>
    </contour>
  </outline>
</glyph>
<glyph name="aogonek" format="1">
  <advance width="488"/>
  <unicode hex="0105"/>
  <outline>
    <contour>
      <point x="274" y="34" type="line"/>
      <point x="221" y="-22"/>
      <point x="202" y="-55"/>
      <point x="202" y="-96" type="curve" smooth="yes"/>
      <point x="202" y="-156"/>
      <point x="242" y="-197"/>
      <point x="304" y="-197" type="curve" smooth="yes"/>
      <point x="343" y="-197"/>
      <point x="371" y="-181"/>
      <point x="407" y="-151" type="curve"/>
      <point x="395" y="-79" type="line"/>
      <point x="385" y="-79" type="line"/>
      <point x="367" y="-92"/>
      <point x="349" y="-99"/>
      <point x="333" y="-99" type="curve" smooth="yes"/>
      <point x="309" y="-99"/>
      <point x="298" y="-84"/>
      <point x="298" y="-68" type="curve" smooth="yes"/>
      <point x="298" y="-48"/>
      <point x="311" y="-29"/>
      <point x="366" y="23" type="curve"/>
    </contour>
    <component base="a"/>
  </outline>
</glyph>
<glyph name="dcaron" format="1">
  <advance width="609"/>
  <unicode hex="010F"/>
  <outline>
    <contour>
      <point x="229" y="243" type="move"/>
    </contour>
    <component base="d"/>
    <component base="caron.alt" xOffset="346" yOffset="-121"/>
  </outline>
</glyph>
<glyph name="dcroat" format="1">
  <advance width="497"/>
  <unicode hex="0111"/>
  <outline>
    <contour>
      <point x="200" y="625" type="line"/>
      <point x="193" y="537" type="line"/>
      <point x="205" y="524" type="line"/>
      <point x="553" y="524" type="line"/>
      <point x="560" y="612" type="line"/>
      <point x="548" y="625" type="line"/>
    </contour>
    <component base="d"/>
  </outline>
</glyph>
<glyph name="Hbar" format="1">
  <advance width="745"/>
  <unicode hex="0126"/>
  <outline>
    <contour>
      <point x="52" y="573" type="line"/>
      <point x="46" y="482" type="line"/>
      <point x="54" y="472" type="line"/>
      <point x="764" y="472" type="line"/>
      <point x="769" y="563" type="line"/>
      <point x="761" y="573" type="line"/>
    </contour>
    <component base="H" xOffset="16.949"/>
  </outline>
</glyph>
<glyph name="hbar" format="1">
  <advance width="563"/>
  <unicode hex="0127"/>
  <outline>
    <contour>
      <point x="56" y="625" type="line"/>
      <point x="49" y="537" type="line"/>
      <point x="61" y="524" type="line"/>
      <point x="409" y="524" type="line"/>
      <point x="416" y="612" type="line"/>
      <point x="404" y="625" type="line"/>
    </contour>
    <component base="h" xOffset="40.010"/>
  </outline>
</glyph>
<glyph name="dotlessi" format="1">
  <advance width="259"/>
  <unicode hex="0131"/>
  <outline>
    <contour>
      <point x="66" y="465" type="line"/>
      <point x="62" y="352" type="line"/>
      <point x="15" y="-4" type="line"/>
      <point x="192" y="7" type="line"/>
      <point x="197" y="116" type="line"/>
      <point x="243" y="476" type="line"/>
    </contour>
    <contour>
      <point x="204" y="10" type="move" name="ogonek"/>
    </contour>
    <contour>
      <point x="156" y="472" type="move" name="top"/>
    </contour>
  </outline>
</glyph>
<glyph name="kgreenlandic" format="1">
  <advance width="537"/>
  <unicode hex="0138"/>
  <outline>
    <contour>
      <point x="367" y="473" type="line"/>
      <point x="323" y="435"/>
      <point x="280" y="393"/>
      <point x="240" y="345" type="curve"/>
      <point x="220" y="345" type="line"/>
      <point x="185" y="155" type="line"/>
      <point x="242" y="255"/>
      <point x="292" y="295"/>
      <point x="318" y="295" type="curve" smooth="yes"/>
      <point x="328" y="295"/>
      <point x="335" y="288"/>
      <point x="335" y="278" type="curve" smooth="yes"/>
      <point x="335" y="255"/>
      <point x="301" y="218"/>
      <point x="257" y="193" type="curve"/>
      <point x="251" y="170" type="line"/>
      <point x="269" y="112"/>
      <point x="291" y="54"/>
      <point x="314" y="-4" type="curve"/>
      <point x="331" y="-12" type="line"/>
      <point x="480" y="7" type="line"/>
      <point x="489" y="20" type="line"/>
      <point x="460" y="72"/>
      <point x="432" y="126"/>
      <point x="407" y="180" type="curve"/>
      <point x="467" y="224"/>
      <point x="515" y="281"/>
      <point x="515" y="349" type="curve" smooth="yes"/>
      <point x="515" y="422"/>
      <point x="460" y="460"/>
      <point x="380" y="474" type="curve"/>
    </contour>
    <component base="dotlessi"/>
  </outline>
</glyph>
<glyph name="lcaron" format="1">
  <advance width="375"/>
  <unicode hex="013E"/>
  <outline>
    <contour>
      <point x="302" y="88" type="move"/>
    </contour>
    <component base="l"/>
    <component base="caron.alt" xOffset="114" yOffset="-117"/>
  </outline>
</glyph>
<glyph name="Eng" format="1">
  <advance width="715"/>
  <unicode hex="014A"/>
  <outline>
    <contour>
      <point x="517" y="640" type="line"/>
      <point x="484" y="319" type="line"/>
      <point x="472" y="319" type="line"/>
      <point x="329" y="647" type="line"/>
      <point x="112" y="647" type="line"/>
      <point x="66" y="190" type="line"/>
      <point x="32" y="0" type="line"/>
      <point x="213" y="0" type="line"/>
      <point x="234" y="234" type="line"/>
      <point x="249" y="348" type="line"/>
      <point x="261" y="348" type="line"/>
      <point x="419" y="0" type="line"/>
      <point x="402" y="-25"/>
      <point x="375" y="-44"/>
      <point x="332" y="-63" type="curve"/>
      <point x="331" y="-79" type="line"/>
      <point x="370" y="-182" type="line"/>
      <point x="546" y="-132"/>
      <point x="608" y="-69"/>
      <point x="623" y="54" type="curve"/>
      <point x="636" y="211" type="line"/>
      <point x="701" y="651" type="line"/>
    </contour>
  </outline>
</glyph>
<glyph name="eng" format="1">
  <advance width="539"/>
  <unicode hex="014B"/>
  <outline>
    <contour>
      <point x="231" y="117" type="move"/>
    </contour>
    <contour>
      <point x="62" y="352" type="line"/>
      <point x="15" y="-4" type="line"/>
      <point x="192" y="7" type="line"/>
      <point x="196" y="116" type="line"/>
      <point x="243" y="476" type="line"/>
      <point x="66" y="465" type="line"/>
    </contour>
    <contour>
      <point x="354" y="473" type="line"/>
      <point x="314" y="435"/>
      <point x="278" y="393"/>
      <point x="241" y="345" type="curve"/>
      <point x="221" y="345" type="line"/>
      <point x="186" y="155" type="line"/>
      <point x="241" y="252"/>
      <point x="284" y="292"/>
      <point x="305" y="292" type="curve" smooth="yes"/>
      <point x="316" y="292"/>
      <point x="322" y="286"/>
      <point x="322" y="270" type="curve"/>
      <point x="321" y="260" type="line"/>
      <point x="283" y="24" type="line"/>
      <point x="462" y="116" type="line"/>
      <point x="501" y="349" type="line"/>
      <point x="502" y="363" type="line"/>
      <point x="503" y="418"/>
      <point x="440" y="460"/>
      <point x="367" y="474" type="curve"/>
    </contour>
    <contour>
      <point x="283" y="24" type="line"/>
      <point x="274" y="-37"/>
      <point x="245" y="-76"/>
      <point x="196" y="-101" type="curve"/>
      <point x="194" y="-117" type="line"/>
      <point x="247" y="-197" type="line"/>
      <point x="373" y="-145"/>
      <point x="437" y="-73"/>
      <point x="452" y="34" type="curve"/>
      <point x="462" y="116" type="line"/>
    </contour>
  </outline>
</glyph>
<glyph name="OE" format="1">
  <advance width="890"/>
  <unicode hex="0152"/>
  <outline>
    <contour>
      <point x="171" y="659"/>
      <point x="24" y="509"/>
      <point x="24" y="262" type="curve" smooth="yes"/>
      <point x="24" y="88"/>
      <point x="120" y="-12"/>
      <point x="293" y="-12" type="curve" smooth="yes"/>
      <point x="377" y="-12"/>
      <point x="458" y="3"/>
      <point x="522" y="0" type="curve"/>
      <point x="836" y="0" type="line"/>
      <point x="866" y="145" type="line"/>
      <point x="857" y="159" type="line"/>
      <point x="690" y="153" type="line"/>
      <point x="594" y="153" type="line"/>
      <point x="599" y="210" type="line"/>
      <point x="603" y="248" type="line"/>
      <point x="694" y="248" type="line"/>
      <point x="810" y="245" type="line"/>
      <point x="840" y="391" type="line"/>
      <point x="831" y="405" type="line"/>
      <point x="726" y="402" type="line"/>
      <point x="627" y="402" type="line"/>
      <point x="640" y="494" type="line"/>
      <point x="743" y="494" type="line"/>
      <point x="902" y="488" type="line"/>
      <point x="933" y="633" type="line"/>
      <point x="923" y="647" type="line"/>
      <point x="601" y="647" type="line" smooth="yes"/>
      <point x="542" y="647"/>
      <point x="481" y="659"/>
      <point x="402" y="659" type="curve" smooth="yes"/>
    </contour>
    <contour>
      <point x="404" y="500"/>
      <point x="424" y="495"/>
      <point x="433" y="484" type="curve" smooth="yes"/>
      <point x="439" y="476"/>
      <point x="440" y="461"/>
      <point x="438" y="435" type="curve" smooth="yes"/>
      <point x="415" y="204" type="line" smooth="yes"/>
      <point x="413" y="176"/>
      <point x="406" y="159"/>
      <point x="396" y="150" type="curve" smooth="yes"/>
      <point x="385" y="140"/>
      <point x="364" y="135"/>
      <point x="328" y="135" type="curve" smooth="yes"/>
      <point x="260" y="135"/>
      <point x="234" y="172"/>
      <point x="234" y="264" type="curve" smooth="yes"/>
      <point x="234" y="459"/>
      <point x="281" y="500"/>
      <point x="365" y="500" type="curve" smooth="yes"/>
    </contour>
    <contour>
      <point x="655" y="647" type="move" name="top"/>
    </contour>
  </outline>
</glyph>
<glyph name="Tbar" format="1">
  <advance width="518"/>
  <unicode hex="0166"/>
  <outline>
    <contour>
      <point x="87" y="335" type="line"/>
      <point x="80" y="248" type="line"/>
      <point x="92" y="235" type="line"/>
      <point x="452" y="235" type="line"/>
      <point x="459" y="322" type="line"/>
      <point x="447" y="335" type="line"/>
    </contour>
    <component base="T"/>
  </outline>
</glyph>
<glyph name="tbar" format="1">
  <advance width="371"/>
  <unicode hex="0167"/>
  <outline>
    <contour>
      <point x="22" y="309" type="line"/>
      <point x="12" y="222" type="line"/>
      <point x="23" y="209" type="line"/>
      <point x="353" y="209" type="line"/>
      <point x="363" y="296" type="line"/>
      <point x="352" y="309" type="line"/>
    </contour>
    <component base="t" xOffset="3.010"/>
  </outline>
</glyph>
<glyph name="uogonek" format="1">
  <advance width="514"/>
  <unicode hex="0173"/>
  <outline>
    <contour>
      <point x="296" y="34" type="line"/>
      <point x="243" y="-22"/>
      <point x="224" y="-55"/>
      <point x="224" y="-96" type="curve" smooth="yes"/>
      <point x="224" y="-156"/>
      <point x="264" y="-197"/>
      <point x="326" y="-197" type="curve" smooth="yes"/>
      <point x="365" y="-197"/>
      <point x="393" y="-181"/>
      <point x="429" y="-151" type="curve"/>
      <point x="417" y="-79" type="line"/>
      <point x="407" y="-79" type="line"/>
      <point x="389" y="-92"/>
      <point x="371" y="-99"/>
      <point x="355" y="-99" type="curve" smooth="yes"/>
      <point x="331" y="-99"/>
      <point x="320" y="-84"/>
      <point x="320" y="-68" type="curve" smooth="yes"/>
      <point x="320" y="-48"/>
      <point x="333" y="-29"/>
      <point x="388" y="23" type="curve"/>
    </contour>
    <component base="u"/>
  </outline>
</glyph>
<glyph name="Uhorn" format="1">
  <advance width="669"/>
  <unicode hex="01AF"/>
  <outline>
    <contour>
      <point x="621" y="805"/>
      <point x="588" y="788"/>
      <point x="560" y="768" type="curve"/>
      <point x="557" y="754" type="line"/>
      <point x="575" y="739"/>
      <point x="586" y="719"/>
      <point x="586" y="695" type="curve" smooth="yes"/>
      <point x="586" y="661"/>
      <point x="570" y="647"/>
      <point x="529" y="647" type="curve"/>
      <point x="559" y="556" type="line"/>
      <point x="664" y="571"/>
      <point x="736" y="636"/>
      <point x="736" y="713" type="curve" smooth="yes"/>
      <point x="736" y="767"/>
      <point x="701" y="805"/>
      <point x="653" y="805" type="curve" smooth="yes"/>
    </contour>
    <component base="U"/>
    <contour>
      <point x="357" y="647" type="move" name="top"/>
    </contour>
  </outline>
</glyph>
<glyph name="oogonek" format="1">
  <advance width="471"/>
  <unicode hex="01EB"/>
  <outline>
    <contour>
      <point x="269" y="82" type="line"/>
      <point x="201" y="-9" type="line" smooth="yes"/>
      <point x="178" y="-40"/>
      <point x="168" y="-71"/>
      <point x="168" y="-100" type="curve" smooth="yes"/>
      <point x="168" y="-154"/>
      <point x="207" y="-197"/>
      <point x="272" y="-197" type="curve" smooth="yes"/>
      <point x="309" y="-197"/>
      <point x="341" y="-183"/>
      <point x="383" y="-151" type="curve"/>
      <point x="371" y="-79" type="line"/>
      <point x="361" y="-79" type="line"/>
      <point x="340" y="-92"/>
      <point x="318" y="-99"/>
      <point x="300" y="-99" type="curve" smooth="yes"/>
      <point x="275" y="-99"/>
      <point x="264" y="-85"/>
      <point x="264" y="-66" type="curve" smooth="yes"/>
      <point x="264" y="-52"/>
      <point x="270" y="-37"/>
      <point x="280" y="-22" type="curve" smooth="yes"/>
      <point x="349" y="82" type="line"/>
    </contour>
    <component base="o"/>
    <contour>
      <point x="385" y="10" type="move" name="_ogonek"/>
    </contour>
  </outline>
</glyph>
<glyph name="circumflex" format="1">
  <advance width="390"/>
  <unicode hex="02C6"/>
  <outline>
    <contour>
      <point x="116" y="530" type="line"/>
      <point x="163" y="558"/>
      <point x="209" y="586"/>
      <point x="240" y="608" type="curve"/>
      <point x="266" y="586"/>
      <point x="305" y="558"/>
      <point x="344" y="530" type="curve"/>
      <point x="362" y="530" type="line"/>
      <point x="418" y="602" type="line"/>
      <point x="367" y="650"/>
      <point x="312" y="704"/>
      <point x="272" y="751" type="curve"/>
      <point x="238" y="751" type="line"/>
      <point x="175" y="696"/>
      <point x="114" y="643"/>
      <point x="60" y="602" type="curve"/>
      <point x="98" y="530" type="line"/>
    </contour>
    <contour>
      <point x="219" y="472" type="move" name="_top"/>
    </contour>
  </outline>
</glyph>
<glyph name="tildecomb" format="1">
  <advance width="390"/>
  <unicode hex="0303"/>
  <outline>
    <contour>
      <point x="366" y="740" type="line"/>
      <point x="343" y="711"/>
      <point x="323" y="682"/>
      <point x="297" y="682" type="curve" smooth="yes"/>
      <point x="271" y="682"/>
      <point x="196" y="709"/>
      <point x="144" y="716" type="curve"/>
      <point x="128" y="710" type="line"/>
      <point x="47" y="598" type="line"/>
      <point x="47" y="582" type="line"/>
      <point x="104" y="527" type="line"/>
      <point x="120" y="527" type="line"/>
      <point x="143" y="556"/>
      <point x="163" y="585"/>
      <point x="188" y="585" type="curve" smooth="yes"/>
      <point x="214" y="585"/>
      <point x="290" y="558"/>
      <point x="342" y="551" type="curve"/>
      <point x="357" y="557" type="line"/>
      <point x="438" y="670" type="line"/>
      <point x="438" y="686" type="line"/>
      <point x="382" y="740" type="line"/>
    </contour>
    <contour>
      <point x="223" y="472" type="move" name="_top"/>
    </contour>
  </outline>
</glyph>
<glyph name="ydotbelow" format="1">
  <advance width="494"/>
  <unicode hex="1EF5"/>
  <outline>
    <contour>
      <point x="250" y="329" type="move"/>
    </contour>
    <component base="y"/>
    <component base="dotbelowcomb" xOffset="246" xScale="0.91" yScale="0.91"/>
  </outline>
</glyph>
<glyph name="emdash" format="1">
  <advance width="842"/>
  <unicode hex="2014"/>
  <outline>
    <contour>
      <point x="2" y="325" type="line"/>
      <point x="-22" y="208" type="line"/>
      <point x="-11" y="195" type="line"/>
      <point x="848" y="195" type="line"/>
      <point x="871" y="312" type="line"/>
      <point x="861" y="325" type="line"/>
    </contour>
  </outline>
</glyph>
<glyph name="daggerdbl" format="1">
  <advance width="524"/>
  <unicode hex="2021"/>
  <outline>
    <contour>
      <point x="237" y="584" type="line"/>
      <point x="198" y="279" type="line"/>
      <point x="154" y="-81" type="line"/>
      <point x="164" y="-94" type="line"/>
      <point x="283" y="-85" type="line"/>
      <point x="329" y="291" type="line"/>
      <point x="368" y="582" type="line"/>
      <point x="359" y="593" type="line"/>
    </contour>
    <contour>
      <point x="39" y="179" type="line"/>
      <point x="16" y="64" type="line"/>
      <point x="26" y="51" type="line"/>
      <point x="456" y="51" type="line"/>
      <point x="478" y="166" type="line"/>
      <point x="468" y="179" type="line"/>
    </contour>
    <contour>
      <point x="71" y="439" type="line"/>
      <point x="48" y="324" type="line"/>
      <point x="58" y="311" type="line"/>
      <point x="488" y="311" type="line"/>
      <point x="510" y="426" type="line"/>
      <point x="500" y="439" type="line"/>
    </contour>
  </outline>
</glyph>
<glyph name="fraction" format="1">
  <advance width="137"/>
  <unicode hex="2044"/>
  <outline>
    <contour>
      <point x="-255" y="-27" type="line"/>
      <point x="-251" y="-44" type="line"/>
      <point x="-175" y="-94" type="line"/>
      <point x="375" y="623" type="line"/>
      <point x="368" y="647" type="line"/>
      <point x="297" y="694" type="line"/>
    </contour>
  </outline>
</glyph>
<glyph name="franc" format="1">
  <advance width="441"/>
  <unicode hex="20A3"/>
  <outline>
    <contour>
      <point x="93" y="510" type="line"/>
      <point x="56" y="149" type="line"/>
      <point x="30" y="0" type="line"/>
      <point x="196" y="0" type="line"/>
      <point x="210" y="166" type="line"/>
      <point x="262" y="510" type="line"/>
    </contour>
    <contour>
      <point x="-1" y="138" type="line"/>
      <point x="-13" y="78" type="line"/>
      <point x="-8" y="70" type="line"/>
      <point x="307" y="70" type="line"/>
      <point x="319" y="129" type="line"/>
      <point x="313" y="138" type="line"/>
    </contour>
    <contour>
      <point x="294" y="314" type="line"/>
      <point x="188" y="314" type="line"/>
      <point x="174" y="196" type="line"/>
      <point x="173" y="189" type="line"/>
      <point x="268" y="189" type="line"/>
      <point x="381" y="186" type="line"/>
      <point x="406" y="306" type="line"/>
      <point x="398" y="317" type="line"/>
    </contour>
    <contour>
      <point x="205" y="510" type="line"/>
      <point x="190" y="394" type="line"/>
      <point x="190" y="386" type="line"/>
      <point x="310" y="386" type="line"/>
      <point x="450" y="380" type="line"/>
      <point x="475" y="499" type="line"/>
      <point x="468" y="510" type="line"/>
    </contour>
  </outline>
</glyph>
<glyph name="Euro" format="1">
  <advance width="451"/>
  <unicode hex="20AC"/>
  <outline>
    <contour>
      <point x="211" y="519"/>
      <point x="114" y="444"/>
      <point x="75" y="312" type="curve"/>
      <point x="249" y="312" type="line"/>
      <point x="264" y="363"/>
      <point x="291" y="384"/>
      <point x="337" y="384" type="curve" smooth="yes"/>
      <point x="366" y="384"/>
      <point x="403" y="375"/>
      <point x="427" y="360" type="curve"/>
      <point x="439" y="367" type="line"/>
      <point x="483" y="500" type="line"/>
      <point x="448" y="512"/>
      <point x="403" y="519"/>
      <point x="357" y="519" type="curve" smooth="yes"/>
    </contour>
    <contour>
      <point x="57" y="197" type="line"/>
      <point x="57" y="63"/>
      <point x="135" y="-9"/>
      <point x="292" y="-9" type="curve" smooth="yes"/>
      <point x="324" y="-9"/>
      <point x="357" y="-7"/>
      <point x="395" y="3" type="curve"/>
      <point x="423" y="135" type="line"/>
      <point x="412" y="142" type="line"/>
      <point x="384" y="133"/>
      <point x="341" y="126"/>
      <point x="314" y="126" type="curve" smooth="yes"/>
      <point x="268" y="126"/>
      <point x="243" y="147"/>
      <point x="237" y="197" type="curve"/>
    </contour>
    <contour>
      <point x="20" y="355" type="line"/>
      <point x="6" y="277" type="line"/>
      <point x="11" y="268" type="line"/>
      <point x="364" y="268" type="line"/>
      <point x="378" y="348" type="line"/>
      <point x="372" y="355" type="line"/>
    </contour>
    <contour>
      <point x="7" y="242" type="line"/>
      <point x="-7" y="163" type="line"/>
      <point x="-2" y="155" type="line"/>
      <point x="351" y="155" type="line"/>
      <point x="365" y="234" type="line" smooth="yes"/>
      <point x="359" y="242" type="line"/>
    </contour>
  </outline>
</glyph>
<glyph name="summation" format="1">
  <advance width="546"/>
  <unicode hex="2211"/>
  <outline>
    <contour>
      <point x="426" y="647" type="line"/>
      <point x="174" y="647" type="line"/>
      <point x="79" y="649" type="line"/>
      <point x="60" y="501" type="line"/>
      <point x="228" y="323" type="line"/>
      <point x="15" y="134" type="line"/>
      <point x="-1" y="-3" type="line"/>
      <point x="106" y="0" type="line"/>
      <point x="317" y="0" type="line"/>
      <point x="485" y="-2" type="line"/>
      <point x="515" y="139" type="line"/>
      <point x="505" y="154" type="line"/>
      <point x="378" y="145" type="line"/>
      <point x="257" y="145" type="line"/>
      <point x="443" y="310" type="line"/>
      <point x="446" y="338" type="line"/>
      <point x="298" y="502" type="line"/>
      <point x="427" y="502" type="line"/>
      <point x="536" y="495" type="line"/>
      <point x="565" y="635" type="line"/>
      <point x="555" y="649" type="line"/>
    </contour>
  </outline>
</glyph>
<glyph name="notequal" format="1">
  <advance width="479"/>
  <unicode hex="2260"/>
  <outline>
    <contour>
      <point x="280" y="563" type="line"/>
      <point x="66" y="-39" type="line"/>
      <point x="73" y="-52" type="line"/>
      <point x="193" y="-52" type="line"/>
      <point x="407" y="550" type="line"/>
      <point x="397" y="563" type="line"/>
    </contour>
    <component base="equal"/>
  </outline>
</glyph>
<glyph name="L.ss01" format="1">
  <advance width="403"/>
  <outline>
    <contour>
      <point x="85" y="509" type="line"/>
      <point x="50" y="152" type="line"/>
      <point x="23" y="6" type="line"/>
      <point x="347" y="6" type="line"/>
      <point x="370" y="153" type="line"/>
      <point x="312" y="153" type="line"/>
      <point x="299" y="153" type="line"/>
      <point x="216" y="153" type="line"/>
      <point x="218" y="171" type="line"/>
      <point x="269" y="509" type="line"/>
    </contour>
    <contour>
      <point x="-120" y="65" type="line"/>
      <point x="-127" y="0" type="line"/>
      <point x="474" y="0" type="line"/>
      <point x="481" y="65" type="line"/>
    </contour>
    <contour>
      <point x="-65" y="513" type="line"/>
      <point x="-72" y="448" type="line"/>
      <point x="529" y="448" type="line"/>
      <point x="536" y="513" type="line"/>
    </contour>
  </outline>
</glyph>
<glyph name="Q.corta" format="1">
  <advance width="661"/>
  <outline>
    <contour>
      <point x="150" y="659"/>
      <point x="24" y="498"/>
      <point x="24" y="276" type="curve" smooth="yes"/>
      <point x="24" y="78"/>
      <point x="129" y="-12"/>
      <point x="299" y="-12" type="curve" smooth="yes"/>
      <point x="528" y="-12"/>
      <point x="654" y="152"/>
      <point x="654" y="374" type="curve" smooth="yes"/>
      <point x="654" y="571"/>
      <point x="549" y="659"/>
      <point x="380" y="659" type="curve" smooth="yes"/>
    </contour>
    <contour>
      <point x="278" y="9" type="line"/>
      <point x="351" y="-63"/>
      <point x="435" y="-129"/>
      <point x="520" y="-192" type="curve"/>
      <point x="535" y="-185" type="line"/>
      <point x="580" y="-149"/>
      <point x="614" y="-107"/>
      <point x="645" y="-59" type="curve"/>
      <point x="640" y="-41" type="line"/>
      <point x="565" y="-8"/>
      <point x="494" y="31"/>
      <point x="422" y="74" type="curve"/>
    </contour>
    <contour>
      <point x="428" y="500"/>
      <point x="444" y="464"/>
      <point x="444" y="362" type="curve" smooth="yes"/>
      <point x="444" y="170"/>
      <point x="390" y="135"/>
      <point x="320" y="135" type="curve" smooth="yes"/>
      <point x="248" y="135"/>
      <point x="233" y="171"/>
      <point x="233" y="273" type="curve" smooth="yes"/>
      <point x="233" y="465"/>
      <point x="286" y="500"/>
      <point x="357" y="500" type="curve" smooth="yes"/>
    </contour>
  </outline>
</glyph>
<glyph name="caron.cap" format="1">
  <advance width="390"/>
  <outline>
    <contour>
      <point x="373" y="731" type="line"/>
      <point x="331" y="711"/>
      <point x="287" y="691"/>
      <point x="246" y="671" type="curve"/>
      <point x="209" y="691"/>
      <point x="174" y="711"/>
      <point x="138" y="731" type="curve"/>
      <point x="120" y="731" type="line"/>
      <point x="77" y="656" type="line"/>
      <point x="132" y="617"/>
      <point x="182" y="578"/>
      <point x="225" y="537" type="curve"/>
      <point x="258" y="537" type="line"/>
      <point x="305" y="578"/>
      <point x="357" y="617"/>
      <point x="416" y="656" type="curve"/>
      <point x="391" y="731" type="line"/>
    </contour>
    <contour>
      <point x="227" y="472" type="move" name="_top"/>
    </contour>
  </outline>
</glyph>
<glyph name="circumflexgrave" format="1">
  <advance width="390"/>
  <outline>
    <contour>
      <point x="224" y="719" type="line"/>
      <point x="177" y="678"/>
      <point x="124" y="640"/>
      <point x="66" y="601" type="curve"/>
      <point x="91" y="525" type="line"/>
      <point x="109" y="525" type="line"/>
      <point x="150" y="545"/>
      <point x="196" y="565"/>
      <point x="237" y="585" type="curve"/>
      <point x="274" y="565"/>
      <point x="308" y="545"/>
      <point x="344" y="525" type="curve"/>
      <point x="362" y="525" type="line"/>
      <point x="405" y="601" type="line"/>
      <point x="349" y="640"/>
      <point x="300" y="678"/>
      <point x="258" y="719" type="curve"/>
    </contour>
    <contour>
      <point x="247" y="835" type="line"/>
      <point x="242" y="822" type="line"/>
      <point x="352" y="674" type="line"/>
      <point x="363" y="674" type="line"/>
      <point x="426" y="720" type="line"/>
      <point x="356" y="869" type="line"/>
      <point x="344" y="876" type="line"/>
    </contour>
    <contour>
      <point x="221" y="472" type="move" name="_top"/>
    </contour>
  </outline>
</glyph>
<glyph name="circumflexhookabove" format="1">
  <advance width="390"/>
  <outline>
    <contour>
      <point x="225" y="720" type="line"/>
      <point x="178" y="679"/>
      <point x="125" y="641"/>
      <point x="67" y="602" type="curve"/>
      <point x="92" y="526" type="line"/>
      <point x="110" y="526" type="line"/>
      <point x="151" y="546"/>
      <point x="197" y="566"/>
      <point x="238" y="586" type="curve"/>
      <point x="275" y="566"/>
      <point x="309" y="546"/>
      <point x="345" y="526" type="curve"/>
      <point x="363" y="526" type="line"/>
      <point x="406" y="602" type="line"/>
      <point x="350" y="641"/>
      <point x="301" y="679"/>
      <point x="259" y="720" type="curve"/>
    </contour>
    <contour>
      <point x="301" y="925"/>
      <point x="256" y="902"/>
      <point x="224" y="867" type="curve"/>
      <point x="251" y="822" type="line"/>
      <point x="271" y="837"/>
      <point x="298" y="847"/>
      <point x="318" y="847" type="curve" smooth="yes"/>
      <point x="334" y="847"/>
      <point x="346" y="840"/>
      <point x="346" y="824" type="curve" smooth="yes"/>
      <point x="346" y="804"/>
      <point x="327" y="774"/>
      <point x="295" y="752" type="curve"/>
      <point x="346" y="676" type="line"/>
      <point x="406" y="713" type="line"/>
      <point x="381" y="754" type="line"/>
      <point x="425" y="794"/>
      <point x="439" y="814"/>
      <point x="439" y="841" type="curve" smooth="yes"/>
      <point x="439" y="892"/>
      <point x="397" y="925"/>
      <point x="345" y="925" type="curve" smooth="yes"/>
    </contour>
    <contour>
      <point x="221" y="472" type="move" name="_top"/>
    </contour>
  </outline>
</glyph>
<glyph name="dieresisacute" format="1">
  <advance width="390"/>
  <outline>
    <contour>
      <point x="271" y="878"/>
      <point x="194" y="852"/>
      <point x="105" y="825" type="curve"/>
      <point x="121" y="742" type="line"/>
      <point x="137" y="735" type="line"/>
      <point x="216" y="742"/>
      <point x="294" y="751"/>
      <point x="382" y="762" type="curve"/>
      <point x="391" y="777" type="line"/>
      <point x="364" y="900" type="line"/>
      <point x="348" y="907" type="line"/>
    </contour>
    <contour>
      <point x="95" y="696"/>
      <point x="61" y="662"/>
      <point x="61" y="607" type="curve" smooth="yes"/>
      <point x="61" y="554"/>
      <point x="90" y="524"/>
      <point x="143" y="524" type="curve" smooth="yes"/>
      <point x="196" y="524"/>
      <point x="229" y="559"/>
      <point x="229" y="615" type="curve" smooth="yes"/>
      <point x="229" y="666"/>
      <point x="200" y="696"/>
      <point x="150" y="696" type="curve" smooth="yes"/>
    </contour>
    <contour>
      <point x="287" y="696"/>
      <point x="253" y="662"/>
      <point x="253" y="607" type="curve" smooth="yes"/>
      <point x="253" y="554"/>
      <point x="282" y="524"/>
      <point x="335" y="524" type="curve" smooth="yes"/>
      <point x="388" y="524"/>
      <point x="421" y="559"/>
      <point x="421" y="615" type="curve" smooth="yes"/>
      <point x="421" y="666"/>
      <point x="392" y="696"/>
      <point x="342" y="696" type="curve" smooth="yes"/>
    </contour>
    <contour>
      <point x="221" y="472" type="move" name="_top"/>
    </contour>
  </outline>
</glyph>
<glyph name="f.t" format="1">
  <advance width="337"/>
  <outline>
    <contour>
      <point x="218" y="702"/>
      <point x="123" y="624"/>
      <point x="106" y="466" type="curve" smooth="yes"/>
      <point x="77" y="190" type="line"/>
      <point x="38" y="-108" type="line"/>
      <point x="215" y="-97" type="line"/>
      <point x="219" y="12" type="line"/>
      <point x="244" y="210" type="line"/>
      <point x="287" y="508" type="line" smooth="yes"/>
      <point x="294" y="555"/>
      <point x="310" y="575"/>
      <point x="339" y="575" type="curve" smooth="yes"/>
      <point x="354" y="575"/>
      <point x="373" y="568"/>
      <point x="405" y="550" type="curve"/>
      <point x="428" y="558" type="line"/>
      <point x="475" y="678" type="line"/>
      <point x="466" y="692" type="line"/>
      <point x="369" y="702" type="line"/>
    </contour>
    <contour>
      <point x="37" y="463" type="line"/>
      <point x="25" y="373" type="line"/>
      <point x="33" y="362" type="line"/>
      <point x="553" y="362" type="line"/>
      <point x="566" y="449" type="line"/>
      <point x="554" y="463" type="line"/>
    </contour>
    <contour>
      <point x="171" y="0" type="move" name="bottom"/>
    </contour>
    <contour>
      <point x="279" y="749" type="move" name="top"/>
    </contour>
  </outline>
</glyph>
<glyph name="four.lf" format="1">
  <advance width="519"/>
  <outline>
    <contour>
      <point x="289" y="586" type="line"/>
      <point x="11" y="245" type="line"/>
      <point x="-4" y="123" type="line"/>
      <point x="6" y="108" type="line"/>
      <point x="118" y="112" type="line"/>
      <point x="344" y="112" type="line"/>
      <point x="476" y="108" type="line"/>
      <point x="501" y="242" type="line"/>
      <point x="492" y="259" type="line"/>
      <point x="180" y="259" type="line"/>
      <point x="275" y="373" type="line"/>
      <point x="286" y="373" type="line"/>
      <point x="267" y="223" type="line"/>
      <point x="230" y="-1" type="line"/>
      <point x="238" y="-13" type="line"/>
      <point x="391" y="-4" type="line"/>
      <point x="403" y="9" type="line"/>
      <point x="413" y="184" type="line"/>
      <point x="468" y="586" type="line"/>
    </contour>
  </outline>
</glyph>
<glyph name="hungarumlaut.cap" format="1">
  <advance width="390"/>
  <outline>
    <contour>
      <point x="282" y="536" type="line"/>
      <point x="297" y="541" type="line"/>
      <point x="342" y="580"/>
      <point x="386" y="621"/>
      <point x="428" y="663" type="curve"/>
      <point x="426" y="677" type="line"/>
      <point x="335" y="734" type="line"/>
      <point x="322" y="731" type="line"/>
      <point x="290" y="680"/>
      <point x="256" y="631"/>
      <point x="223" y="582" type="curve"/>
    </contour>
    <contour>
      <point x="113" y="536" type="line"/>
      <point x="129" y="541" type="line"/>
      <point x="174" y="580"/>
      <point x="218" y="621"/>
      <point x="259" y="663" type="curve"/>
      <point x="257" y="677" type="line"/>
      <point x="167" y="734" type="line"/>
      <point x="153" y="731" type="line"/>
      <point x="122" y="680"/>
      <point x="88" y="631"/>
      <point x="54" y="582" type="curve"/>
    </contour>
    <contour>
      <point x="221" y="472" type="move" name="_top"/>
    </contour>
  </outline>
</glyph>
<glyph name="nine.dnom" format="1">
  <advance width="366"/>
  <outline>
    <contour>
      <point x="82" y="401"/>
      <point x="25" y="327"/>
      <point x="19" y="261" type="curve"/>
      <point x="13" y="201"/>
      <point x="51" y="139"/>
      <point x="134" y="139" type="curve" smooth="yes"/>
      <point x="148" y="139"/>
      <point x="164" y="141"/>
      <point x="178" y="144" type="curve"/>
      <point x="201" y="115" type="line"/>
      <point x="230" y="242" type="line"/>
      <point x="213" y="237"/>
      <point x="199" y="235"/>
      <point x="187" y="235" type="curve" smooth="yes"/>
      <point x="159" y="235"/>
      <point x="150" y="248"/>
      <point x="152" y="275" type="curve"/>
      <point x="154" y="300"/>
      <point x="166" y="313"/>
      <point x="189" y="313" type="curve"/>
      <point x="223" y="313"/>
      <point x="221" y="287"/>
      <point x="217" y="243" type="curve"/>
      <point x="208" y="144"/>
      <point x="174" y="119"/>
      <point x="32" y="67" type="curve"/>
      <point x="30" y="53" type="line"/>
      <point x="118" y="-8" type="line"/>
      <point x="125" y="-8" type="line"/>
      <point x="259" y="52"/>
      <point x="342" y="142"/>
      <point x="351" y="245" type="curve"/>
      <point x="359" y="341"/>
      <point x="301" y="401"/>
      <point x="199" y="401" type="curve"/>
    </contour>
  </outline>
</glyph>
<glyph name="nine.tosf" format="1">
  <advance width="475"/>
  <outline>
    <contour>
      <point x="102" y="525"/>
      <point x="22" y="414"/>
      <point x="22" y="311" type="curve" smooth="yes"/>
      <point x="22" y="223"/>
      <point x="78" y="137"/>
      <point x="181" y="137" type="curve" smooth="yes"/>
      <point x="199" y="137"/>
      <point x="214" y="140"/>
      <point x="234" y="147" type="curve"/>
      <point x="263" y="108" type="line"/>
      <point x="309" y="287" type="line"/>
      <point x="285" y="277"/>
      <point x="263" y="271"/>
      <point x="245" y="271" type="curve" smooth="yes"/>
      <point x="213" y="271"/>
      <point x="200" y="290"/>
      <point x="200" y="329" type="curve" smooth="yes"/>
      <point x="200" y="371"/>
      <point x="216" y="400"/>
      <point x="252" y="400" type="curve" smooth="yes"/>
      <point x="285" y="400"/>
      <point x="296" y="375"/>
      <point x="296" y="316" type="curve" smooth="yes"/>
      <point x="296" y="166"/>
      <point x="224" y="78"/>
      <point x="28" y="19" type="curve"/>
      <point x="26" y="0" type="line"/>
      <point x="138" y="-85" type="line"/>
      <point x="147" y="-85" type="line"/>
      <point x="349" y="9"/>
      <point x="471" y="152"/>
      <point x="471" y="315" type="curve" smooth="yes"/>
      <point x="471" y="445"/>
      <point x="394" y="525"/>
      <point x="260" y="525" type="curve" smooth="yes"/>
    </contour>
  </outline>
</glyph>
<glyph name="o.sups" format="1">
  <advance width="323"/>
  <outline>
    <contour>
      <point x="227" y="651" type="line"/>
      <point x="111" y="645"/>
      <point x="38" y="565"/>
      <point x="38" y="442" type="curve" smooth="yes"/>
      <point x="38" y="366"/>
      <point x="77" y="326"/>
      <point x="140" y="314" type="curve"/>
      <point x="150" y="312" type="line"/>
      <point x="268" y="318"/>
      <point x="339" y="398"/>
      <point x="339" y="529" type="curve" smooth="yes"/>
      <point x="339" y="599"/>
      <point x="299" y="638"/>
      <point x="238" y="650" type="curve"/>
      <point x="227" y="651" type="line"/>
    </contour>
    <contour>
      <point x="227" y="570"/>
      <point x="233" y="558"/>
      <point x="233" y="521" type="curve" smooth="yes"/>
      <point x="233" y="432"/>
      <point x="220" y="391"/>
      <point x="172" y="391" type="curve" smooth="yes"/>
      <point x="151" y="391"/>
      <point x="144" y="403"/>
      <point x="144" y="441" type="curve" smooth="yes"/>
      <point x="144" y="529"/>
      <point x="157" y="570"/>
      <point x="207" y="570" type="curve" smooth="yes"/>
    </contour>
  </outline>
</glyph>
<glyph name="one.dnom" format="1">
  <advance width="295"/>
  <outline>
    <contour>
      <point x="17" y="347" type="line"/>
      <point x="3" y="235" type="line"/>
      <point x="12" y="229" type="line"/>
      <point x="93" y="241" type="line"/>
      <point x="79" y="127" type="line"/>
      <point x="58" y="0" type="line"/>
      <point x="207" y="0" type="line"/>
      <point x="218" y="141" type="line"/>
      <point x="255" y="385" type="line"/>
      <point x="236" y="399" type="line"/>
    </contour>
  </outline>
</glyph>
<glyph name="s.sups" format="1">
  <advance width="265"/>
  <outline>
    <contour>
      <point x="126" y="649"/>
      <point x="55" y="605"/>
      <point x="54" y="531" type="curve" smooth="yes"/>
      <point x="55" y="454"/>
      <point x="170" y="438"/>
      <point x="175" y="404" type="curve" smooth="yes"/>
      <point x="176" y="392"/>
      <point x="166" y="379"/>
      <point x="146" y="379" type="curve" smooth="yes"/>
      <point x="121" y="379"/>
      <point x="87" y="395"/>
      <point x="60" y="424" type="curve"/>
      <point x="49" y="418" type="line"/>
      <point x="25" y="332" type="line"/>
      <point x="55" y="322"/>
      <point x="86" y="316"/>
      <point x="119" y="313" type="curve"/>
      <point x="206" y="313"/>
      <point x="270" y="360"/>
      <point x="270" y="425" type="curve" smooth="yes"/>
      <point x="270" y="513"/>
      <point x="152" y="520"/>
      <point x="152" y="558" type="curve" smooth="yes"/>
      <point x="152" y="570"/>
      <point x="162" y="580"/>
      <point x="179" y="580" type="curve" smooth="yes"/>
      <point x="197" y="580"/>
      <point x="225" y="568"/>
      <point x="251" y="545" type="curve"/>
      <point x="266" y="551" type="line"/>
      <point x="288" y="632" type="line"/>
      <point x="263" y="640"/>
      <point x="236" y="646"/>
      <point x="208" y="648" type="curve"/>
    </contour>
    <contour>
      <point x="222" y="0" type="move" name="bottom"/>
    </contour>
    <contour>
      <point x="225" y="464" type="move" name="top"/>
    </contour>
  </outline>
</glyph>
<glyph name="six.tosf" format="1">
  <advance width="475"/>
  <outline>
    <contour>
      <point x="330" y="598" type="line"/>
      <point x="129" y="504"/>
      <point x="6" y="361"/>
      <point x="6" y="198" type="curve" smooth="yes"/>
      <point x="6" y="68"/>
      <point x="84" y="-12"/>
      <point x="218" y="-12" type="curve" smooth="yes"/>
      <point x="376" y="-12"/>
      <point x="455" y="99"/>
      <point x="455" y="202" type="curve" smooth="yes"/>
      <point x="455" y="290"/>
      <point x="399" y="376"/>
      <point x="296" y="376" type="curve" smooth="yes"/>
      <point x="278" y="376"/>
      <point x="263" y="373"/>
      <point x="244" y="365" type="curve"/>
      <point x="215" y="405" type="line"/>
      <point x="168" y="226" type="line"/>
      <point x="192" y="236"/>
      <point x="215" y="241"/>
      <point x="232" y="241" type="curve" smooth="yes"/>
      <point x="264" y="241"/>
      <point x="277" y="223"/>
      <point x="277" y="184" type="curve" smooth="yes"/>
      <point x="277" y="142"/>
      <point x="261" y="112"/>
      <point x="226" y="112" type="curve" smooth="yes"/>
      <point x="192" y="112"/>
      <point x="181" y="138"/>
      <point x="181" y="197" type="curve" smooth="yes"/>
      <point x="181" y="347"/>
      <point x="254" y="435"/>
      <point x="450" y="494" type="curve"/>
      <point x="452" y="512" type="line"/>
      <point x="339" y="598" type="line"/>
    </contour>
  </outline>
</glyph>
<glyph name="t.sups" format="1">
  <advance width="249"/>
  <outline>
    <contour>
      <point x="216" y="732" type="line"/>
      <point x="111" y="709" type="line"/>
      <point x="95" y="566" type="line"/>
      <point x="72" y="409" type="line"/>
      <point x="70" y="388" type="line"/>
      <point x="70" y="334"/>
      <point x="100" y="316"/>
      <point x="170" y="314" type="curve"/>
      <point x="182" y="315" type="line"/>
      <point x="214" y="335"/>
      <point x="240" y="363"/>
      <point x="262" y="399" type="curve"/>
      <point x="232" y="435" type="line"/>
      <point x="217" y="436" type="line"/>
      <point x="206" y="414"/>
      <point x="198" y="404"/>
      <point x="187" y="404" type="curve" smooth="yes"/>
      <point x="180" y="404"/>
      <point x="176" y="408"/>
      <point x="176" y="415" type="curve"/>
      <point x="177" y="421" type="line"/>
      <point x="224" y="726" type="line"/>
      <point x="216" y="732" type="line"/>
    </contour>
    <contour>
      <point x="286" y="638" type="line"/>
      <point x="53" y="638" type="line"/>
      <point x="46" y="584" type="line"/>
      <point x="52" y="577" type="line"/>
      <point x="287" y="577" type="line"/>
      <point x="294" y="629" type="line"/>
      <point x="286" y="638" type="line"/>
    </contour>
    <contour>
      <point x="211" y="0" type="move" name="bottom"/>
    </contour>
    <contour>
      <point x="208" y="234" type="move" name="center"/>
    </contour>
  </outline>
</glyph>
<glyph name="three.tosf" format="1">
  <advance width="475"/>
  <outline>
    <contour>
      <point x="186" y="524"/>
      <point x="118" y="504"/>
      <point x="51" y="469" type="curve"/>
      <point x="64" y="334" type="line"/>
      <point x="84" y="334" type="line"/>
      <point x="129" y="354"/>
      <point x="166" y="367"/>
      <point x="201" y="367" type="curve" smooth="yes"/>
      <point x="230" y="367"/>
      <point x="245" y="358"/>
      <point x="245" y="337" type="curve" smooth="yes"/>
      <point x="245" y="308"/>
      <point x="207" y="284"/>
      <point x="178" y="283" type="curve" smooth="yes"/>
      <point x="117" y="280" type="line"/>
      <point x="97" y="146" type="line"/>
      <point x="103" y="134" type="line"/>
      <point x="187" y="134" type="line"/>
      <point x="221" y="134"/>
      <point x="234" y="124"/>
      <point x="234" y="104" type="curve" smooth="yes"/>
      <point x="234" y="71"/>
      <point x="203" y="53"/>
      <point x="139" y="53" type="curve" smooth="yes"/>
      <point x="100" y="53"/>
      <point x="62" y="60"/>
      <point x="18" y="73" type="curve"/>
      <point x="3" y="61" type="line"/>
      <point x="-4" y="-82" type="line"/>
      <point x="32" y="-89"/>
      <point x="86" y="-93"/>
      <point x="124" y="-93" type="curve" smooth="yes"/>
      <point x="304" y="-93"/>
      <point x="421" y="-9"/>
      <point x="421" y="111" type="curve" smooth="yes"/>
      <point x="421" y="169"/>
      <point x="393" y="200"/>
      <point x="339" y="229" type="curve"/>
      <point x="339" y="235" type="line"/>
      <point x="411" y="269"/>
      <point x="449" y="339"/>
      <point x="449" y="391" type="curve" smooth="yes"/>
      <point x="449" y="469"/>
      <point x="368" y="524"/>
      <point x="255" y="524" type="curve" smooth="yes"/>
    </contour>
  </outline>
</glyph>
<glyph name="two.lf" format="1">
  <advance width="505"/>
  <outline>
    <contour>
      <point x="213" y="597"/>
      <point x="132" y="567"/>
      <point x="61" y="521" type="curve"/>
      <point x="75" y="370" type="line"/>
      <point x="96" y="370" type="line"/>
      <point x="146" y="408"/>
      <point x="201" y="432"/>
      <point x="234" y="432" type="curve" smooth="yes"/>
      <point x="259" y="432"/>
      <point x="270" y="419"/>
      <point x="270" y="402" type="curve" smooth="yes"/>
      <point x="270" y="365"/>
      <point x="223" y="324"/>
      <point x="176" y="277" type="curve" smooth="yes"/>
      <point x="17" y="122" type="line"/>
      <point x="3" y="4" type="line"/>
      <point x="11" y="-3" type="line"/>
      <point x="48" y="0" type="line"/>
      <point x="285" y="0" type="line"/>
      <point x="430" y="-8" type="line"/>
      <point x="471" y="149" type="line"/>
      <point x="463" y="162" type="line"/>
      <point x="363" y="152" type="line"/>
      <point x="273" y="152" type="line" smooth="yes"/>
      <point x="270" y="157" type="line"/>
      <point x="335" y="226" type="line" smooth="yes"/>
      <point x="437" y="334"/>
      <point x="470" y="387"/>
      <point x="470" y="446" type="curve" smooth="yes"/>
      <point x="470" y="537"/>
      <point x="393" y="597"/>
      <point x="288" y="597" type="curve" smooth="yes"/>
    </contour>
  </outline>
</glyph>
<glyph name="v.sups" format="1">
  <advance width="322"/>
  <outline>
    <contour>
      <point x="236" y="629" type="line"/>
      <point x="243" y="616"/>
      <point x="246" y="603"/>
      <point x="246" y="589" type="curve" smooth="yes"/>
      <point x="246" y="568"/>
      <point x="239" y="546"/>
      <point x="227" y="518" type="curve" smooth="yes"/>
      <point x="183" y="429" type="line"/>
      <point x="174" y="429" type="line"/>
      <point x="164" y="585" type="line"/>
      <point x="163" y="646" type="line"/>
      <point x="53" y="640" type="line"/>
      <point x="96" y="320" type="line"/>
      <point x="221" y="320" type="line"/>
      <point x="319" y="492" type="line" smooth="yes"/>
      <point x="340" y="530"/>
      <point x="351" y="563"/>
      <point x="351" y="594" type="curve" smooth="yes"/>
      <point x="351" y="612"/>
      <point x="347" y="630"/>
      <point x="339" y="648" type="curve"/>
    </contour>
  </outline>
</glyph>
<glyph name="x.sups" format="1">
  <advance width="345"/>
  <outline>
    <contour>
      <point x="265" y="483" type="line"/>
      <point x="379" y="643" type="line"/>
      <point x="264" y="643" type="line"/>
      <point x="249" y="611" type="line"/>
      <point x="212" y="557" type="line"/>
      <point x="187" y="614" type="line"/>
      <point x="177" y="650" type="line"/>
      <point x="59" y="640" type="line"/>
      <point x="125" y="489" type="line"/>
      <point x="9" y="320" type="line"/>
      <point x="129" y="320" type="line"/>
      <point x="148" y="361" type="line"/>
      <point x="186" y="421" type="line"/>
      <point x="209" y="359" type="line"/>
      <point x="218" y="314" type="line"/>
      <point x="341" y="323" type="line"/>
      <point x="265" y="483" type="line"/>
    </contour>
  </outline>
</glyph>
<glyph name="zero.lf" format="1">
  <advance width="516"/>
  <outline>
    <contour>
      <point x="130" y="597"/>
      <point x="26" y="440"/>
      <point x="26" y="239" type="curve" smooth="yes"/>
      <point x="26" y="70"/>
      <point x="99" y="-12"/>
      <point x="224" y="-12" type="curve" smooth="yes"/>
      <point x="395" y="-12"/>
      <point x="499" y="142"/>
      <point x="499" y="347" type="curve" smooth="yes"/>
      <point x="499" y="518"/>
      <point x="426" y="597"/>
      <point x="303" y="597" type="curve" smooth="yes"/>
    </contour>
    <contour>
      <point x="328" y="416"/>
      <point x="344" y="387"/>
      <point x="344" y="312" type="curve" smooth="yes"/>
      <point x="344" y="217"/>
      <point x="318" y="158"/>
      <point x="247" y="158" type="curve" smooth="yes"/>
      <point x="191" y="158"/>
      <point x="180" y="193"/>
      <point x="180" y="264" type="curve" smooth="yes"/>
      <point x="180" y="357"/>
      <point x="199" y="416"/>
      <point x="275" y="416" type="curve" smooth="yes"/>
    </contour>
  </outline>
</glyph>
